SplineFontDB: 3.2
FontName: NotoSansSamaritan-Regular
FullName: Noto Sans Samaritan Regular
FamilyName: Noto Sans Samaritan
Weight: Book
Copyright: Copyright 2017 Google Inc. All Rights Reserved.
Version: 2.000
ItalicAngle: 0
UnderlinePosition: -125
UnderlineWidth: 50
Ascent: 800
Descent: 200
InvalidEm: 0
sfntRevision: 0x00020000
LayerCount: 2
Layer: 0 1 "+BBcEMAQ0BD0EOAQ5 +BD8EOwQwBD0A" 1
Layer: 1 1 "+BB8ENQRABDUENAQ9BDgEOQAA +BD8EOwQwBD0A" 0
XUID: [1021 59 1751208496 24527]
StyleMap: 0x0040
FSType: 0
OS2Version: 4
OS2_WeightWidthSlopeOnly: 1
OS2_UseTypoMetrics: 0
CreationTime: 1488379198
ModificationTime: 1626555027
PfmFamily: 17
TTFWeight: 400
TTFWidth: 5
LineGap: 0
VLineGap: 0
Panose: 2 11 5 2 4 5 4 2 2 4
OS2TypoAscent: 1069
OS2TypoAOffset: 0
OS2TypoDescent: -293
OS2TypoDOffset: 0
OS2TypoLinegap: 0
OS2WinAscent: 1069
OS2WinAOffset: 0
OS2WinDescent: 293
OS2WinDOffset: 0
HheadAscent: 1069
HheadAOffset: 0
HheadDescent: -293
HheadDOffset: 0
OS2SubXSize: 650
OS2SubYSize: 600
OS2SubXOff: 0
OS2SubYOff: 75
OS2SupXSize: 650
OS2SupYSize: 600
OS2SupXOff: 0
OS2SupYOff: 350
OS2StrikeYSize: 50
OS2StrikeYPos: 322
OS2CapHeight: 659
OS2XHeight: 536
OS2Vendor: 'GOOG'
OS2CodePages: 00000001.00000000
OS2UnicodeRanges: 80000003.00000000.00000000.00000000
Lookup: 1 0 0 "Single Substitution lookup 0" { "Single Substitution lookup 0 subtable"  } []
Lookup: 6 0 0 "'calt' +BBoEPgQ9BEIENQQ6BEEEQgQ9BEsENQAA +BDAEOwRMBEIENQRABD0EMARCBDgEMgRL in Aramaic lookup 1" { "'calt' +BBoEPgQ9BEIENQQ6BEEEQgQ9BEsENQAA +BDAEOwRMBEIENQRABD0EMARCBDgEMgRL in Aramaic lookup 1 contextual 0"  "'calt' +BBoEPgQ9BEIENQQ6BEEEQgQ9BEsENQAA +BDAEOwRMBEIENQRABD0EMARCBDgEMgRL in Aramaic lookup 1 contextual 1"  "'calt' +BBoEPgQ9BEIENQQ6BEEEQgQ9BEsENQAA +BDAEOwRMBEIENQRABD0EMARCBDgEMgRL in Aramaic lookup 1 contextual 2"  } ['calt' ('DFLT' <'dflt' > 'samr' <'dflt' > ) ]
Lookup: 257 0 0 "Single Positioning lookup 0" { "Single Positioning lookup 0 subtable"  } []

StartChar: .notdef
Encoding: 65536 -1 0
Width: 500
Flags: W
LayerCount: 2
Fore
SplineSet
50 0 m 1,0,-1
 50 714 l 1,1,-1
 450 714 l 1,2,-1
 450 0 l 1,3,-1
 50 0 l 1,0,-1
98 48 m 1,4,-1
 402 48 l 1,5,-1
 402 666 l 1,6,-1
 98 666 l 1,7,-1
 98 48 l 1,4,-1
EndSplineSet
EndChar

StartChar: uni0800
Encoding: 2048 2048 4
Width: 927
GlyphClass: 2
Flags: W
AnchorPoint: "+BBEENQQ3BEsEPARPBD0EPQQ+BDUA--2" 48 732 basechar 0
AnchorPoint: "+BBEENQQ3BEsEPARPBD0EPQQ+BDUA--1" 458 732 basechar 0
AnchorPoint: "+BBEENQQ3BEsEPARPBD0EPQQ+BDUA--0" 729 732 basechar 0
LayerCount: 2
Fore
SplineSet
109 -42 m 1,0,1
 97 -17 97 -17 92.5 18 c 128,-1,2
 88 53 88 53 88 87 c 0,3,4
 88 158 88 158 113.5 236.5 c 128,-1,5
 139 315 139 315 178 391.5 c 128,-1,6
 217 468 217 468 258 532 c 1,7,8
 222 549 222 549 184 558 c 1,9,-1
 215 673 l 1,10,11
 305 654 305 654 368.5 586.5 c 128,-1,12
 432 519 432 519 478 415 c 1,13,14
 509 457 509 457 546.5 501.5 c 128,-1,15
 584 546 584 546 625.5 585 c 128,-1,16
 667 624 667 624 708 648 c 1,17,-1
 767 549 l 1,18,19
 619 460 619 460 509 336 c 1,20,21
 523 299 523 299 535 257.5 c 128,-1,22
 547 216 547 216 559 173 c 1,23,24
 574 200 574 200 600.5 235.5 c 128,-1,25
 627 271 627 271 660 308 c 128,-1,26
 693 345 693 345 728.5 377 c 128,-1,27
 764 409 764 409 798 429 c 1,28,-1
 858 324 l 1,29,30
 773 272 773 272 698 203 c 128,-1,31
 623 134 623 134 566 60 c 1,32,-1
 511 71 l 1,33,34
 475 227 475 227 426.5 333.5 c 128,-1,35
 378 440 378 440 309 498 c 1,36,37
 275 438 275 438 252.5 370.5 c 128,-1,38
 230 303 230 303 219 237.5 c 128,-1,39
 208 172 208 172 208 119 c 0,40,41
 208 83 208 83 212 53 c 128,-1,42
 216 23 216 23 226 2 c 1,43,-1
 109 -42 l 1,0,1
EndSplineSet
EndChar

StartChar: uni0801
Encoding: 2049 2049 5
Width: 776
GlyphClass: 2
Flags: W
AnchorPoint: "+BBEENQQ3BEsEPARPBD0EPQQ+BDUA--2" 48 732 basechar 0
AnchorPoint: "+BBEENQQ3BEsEPARPBD0EPQQ+BDUA--1" 322 732 basechar 0
AnchorPoint: "+BBEENQQ3BEsEPARPBD0EPQQ+BDUA--0" 537 732 basechar 0
LayerCount: 2
Fore
SplineSet
502 -39 m 0,0,1
 439 -39 439 -39 369 -28.5 c 128,-1,2
 299 -18 299 -18 231 -7.5 c 128,-1,3
 163 3 163 3 105 3 c 0,4,5
 89 3 89 3 75 1.5 c 128,-1,6
 61 0 61 0 49 -2 c 1,7,-1
 68 112 l 1,8,9
 85 116 85 116 106 116 c 0,10,11
 148 116 148 116 196 104.5 c 128,-1,12
 244 93 244 93 294.5 77.5 c 128,-1,13
 345 62 345 62 395.5 50.5 c 128,-1,14
 446 39 446 39 493 39 c 0,15,16
 537 39 537 39 562.5 47.5 c 128,-1,17
 588 56 588 56 588 93 c 0,18,19
 588 109 588 109 574.5 142 c 128,-1,20
 561 175 561 175 539 219 c 128,-1,21
 517 263 517 263 491 311 c 1,22,23
 448 315 448 315 400.5 317 c 128,-1,24
 353 319 353 319 322 319 c 2,25,-1
 169 319 l 2,26,27
 142 319 142 319 127 322.5 c 128,-1,28
 112 326 112 326 104 333 c 0,29,30
 87 349 87 349 80 360 c 128,-1,31
 73 371 73 371 73 383 c 0,32,33
 73 397 73 397 93 427.5 c 128,-1,34
 113 458 113 458 144.5 496.5 c 128,-1,35
 176 535 176 535 211.5 572 c 128,-1,36
 247 609 247 609 277 636 c 0,37,38
 291 647 291 647 303 654 c 128,-1,39
 315 661 315 661 334 661 c 0,40,41
 343 661 343 661 368 633 c 128,-1,42
 393 605 393 605 427 558 c 128,-1,43
 461 511 461 511 499 454 c 128,-1,44
 537 397 537 397 574 338 c 128,-1,45
 611 279 611 279 641.5 227 c 128,-1,46
 672 175 672 175 690 137.5 c 128,-1,47
 708 100 708 100 708 87 c 0,48,49
 708 70 708 70 698.5 48.5 c 128,-1,50
 689 27 689 27 666.5 7 c 128,-1,51
 644 -13 644 -13 604 -26 c 128,-1,52
 564 -39 564 -39 502 -39 c 0,0,1
444 394 m 1,53,54
 416 443 416 443 388.5 485 c 128,-1,55
 361 527 361 527 340.5 554 c 128,-1,56
 320 581 320 581 311 583 c 1,57,58
 305 580 305 580 291 564.5 c 128,-1,59
 277 549 277 549 260.5 526 c 128,-1,60
 244 503 244 503 228 479 c 128,-1,61
 212 455 212 455 202 434.5 c 128,-1,62
 192 414 192 414 192 404 c 0,63,64
 192 396 192 396 203 396 c 2,65,-1
 311 396 l 2,66,67
 327 396 327 396 366.5 395.5 c 128,-1,68
 406 395 406 395 444 394 c 1,53,54
EndSplineSet
EndChar

StartChar: uni0802
Encoding: 2050 2050 6
Width: 791
GlyphClass: 2
Flags: W
AnchorPoint: "+BBEENQQ3BEsEPARPBD0EPQQ+BDUA--2" 48 732 basechar 0
AnchorPoint: "+BBEENQQ3BEsEPARPBD0EPQQ+BDUA--1" 341 732 basechar 0
AnchorPoint: "+BBEENQQ3BEsEPARPBD0EPQQ+BDUA--0" 585 732 basechar 0
LayerCount: 2
Fore
SplineSet
677 -46 m 1,0,-1
 561 0 l 1,1,2
 593 61 593 61 593 129 c 0,3,4
 593 188 593 188 569.5 261 c 128,-1,5
 546 334 546 334 502 415.5 c 128,-1,6
 458 497 458 497 395 579 c 1,7,8
 323 576 323 576 269 565 c 128,-1,9
 215 554 215 554 176.5 529 c 128,-1,10
 138 504 138 504 109 458 c 1,11,-1
 39 544 l 1,12,13
 68 603 68 603 152.5 631 c 128,-1,14
 237 659 237 659 363 659 c 0,15,16
 413 659 413 659 463 656.5 c 128,-1,17
 513 654 513 654 550.5 651 c 128,-1,18
 588 648 588 648 600 648 c 2,19,-1
 630 648 l 1,20,-1
 642 582 l 1,21,22
 622 581 622 581 601.5 581 c 128,-1,23
 581 581 581 581 561 581 c 2,24,-1
 490 581 l 1,25,26
 557 498 557 498 607 410.5 c 128,-1,27
 657 323 657 323 685 242.5 c 128,-1,28
 713 162 713 162 713 99 c 0,29,30
 713 23 713 23 677 -46 c 1,0,-1
EndSplineSet
EndChar

StartChar: uni0803
Encoding: 2051 2051 7
Width: 658
GlyphClass: 2
Flags: W
AnchorPoint: "+BBEENQQ3BEsEPARPBD0EPQQ+BDUA--2" 48 732 basechar 0
AnchorPoint: "+BBEENQQ3BEsEPARPBD0EPQQ+BDUA--1" 312 732 basechar 0
AnchorPoint: "+BBEENQQ3BEsEPARPBD0EPQQ+BDUA--0" 517 732 basechar 0
LayerCount: 2
Fore
SplineSet
542 -46 m 1,0,-1
 425 0 l 1,1,2
 441 31 441 31 450.5 70 c 128,-1,3
 460 109 460 109 460 143 c 0,4,5
 460 178 460 178 452 223 c 128,-1,6
 444 268 444 268 427 315 c 1,7,8
 397 317 397 317 364.5 318 c 128,-1,9
 332 319 332 319 312 319 c 2,10,-1
 160 319 l 2,11,12
 133 319 133 319 118 322.5 c 128,-1,13
 103 326 103 326 95 333 c 0,14,15
 63 362 63 362 63 383 c 0,16,17
 63 397 63 397 80.5 426 c 128,-1,18
 98 455 98 455 126.5 491.5 c 128,-1,19
 155 528 155 528 188 563.5 c 128,-1,20
 221 599 221 599 251 625 c 0,21,22
 265 637 265 637 281.5 648 c 128,-1,23
 298 659 298 659 326 659 c 0,24,25
 337 659 337 659 358 635 c 1,26,27
 412 654 412 654 468 654 c 0,28,29
 493 654 493 654 522.5 649.5 c 128,-1,30
 552 645 552 645 577 637 c 1,31,-1
 548 545 l 1,32,33
 526 553 526 553 499 559 c 128,-1,34
 472 565 472 565 449 565 c 0,35,36
 427 565 427 565 406 562 c 1,37,38
 430 521 430 521 456 468 c 128,-1,39
 482 415 482 415 507 357.5 c 128,-1,40
 532 300 532 300 553 244 c 0,41,42
 570 201 570 201 575 165.5 c 128,-1,43
 580 130 580 130 580 103 c 0,44,45
 580 65 580 65 570 27 c 128,-1,46
 560 -11 560 -11 542 -46 c 1,0,-1
402 395 m 1,47,48
 383 446 383 446 364 488 c 128,-1,49
 345 530 345 530 329 556 c 128,-1,50
 313 582 313 582 301 583 c 0,51,52
 295 580 295 580 281.5 564.5 c 128,-1,53
 268 549 268 549 251 526 c 128,-1,54
 234 503 234 503 218.5 479 c 128,-1,55
 203 455 203 455 193 434.5 c 128,-1,56
 183 414 183 414 183 404 c 0,57,58
 183 396 183 396 193 396 c 2,59,-1
 301 396 l 2,60,61
 312 396 312 396 343 396 c 128,-1,62
 374 396 374 396 402 395 c 1,47,48
EndSplineSet
EndChar

StartChar: uni0804
Encoding: 2052 2052 8
Width: 858
GlyphClass: 2
Flags: W
AnchorPoint: "+BBEENQQ3BEsEPARPBD0EPQQ+BDUA--2" 48 732 basechar 0
AnchorPoint: "+BBEENQQ3BEsEPARPBD0EPQQ+BDUA--1" 341 732 basechar 0
AnchorPoint: "+BBEENQQ3BEsEPARPBD0EPQQ+BDUA--0" 585 732 basechar 0
LayerCount: 2
Fore
SplineSet
745 -46 m 1,0,-1
 628 0 l 1,1,2
 661 62 661 62 661 130 c 0,3,4
 661 163 661 163 654 201.5 c 128,-1,5
 647 240 647 240 631 282 c 1,6,7
 581 252 581 252 532 214 c 128,-1,8
 483 176 483 176 448.5 133 c 128,-1,9
 414 90 414 90 406 42 c 1,10,-1
 305 82 l 1,11,12
 316 121 316 121 343 154.5 c 128,-1,13
 370 188 370 188 406 216 c 128,-1,14
 442 244 442 244 480.5 267 c 128,-1,15
 519 290 519 290 552.5 308 c 128,-1,16
 586 326 586 326 608 339 c 1,17,18
 574 414 574 414 524 491 c 1,19,20
 469 465 469 465 418.5 426 c 128,-1,21
 368 387 368 387 333.5 341.5 c 128,-1,22
 299 296 299 296 291 247 c 1,23,-1
 190 287 l 1,24,25
 204 335 204 335 241 374.5 c 128,-1,26
 278 414 278 414 325.5 446 c 128,-1,27
 373 478 373 478 417.5 502 c 128,-1,28
 462 526 462 526 490 542 c 1,29,30
 483 553 483 553 475 563 c 128,-1,31
 467 573 467 573 459 583 c 1,32,33
 368 582 368 582 310 570.5 c 128,-1,34
 252 559 252 559 218 541 c 128,-1,35
 184 523 184 523 165 502 c 128,-1,36
 146 481 146 481 133 460 c 1,37,-1
 63 546 l 1,38,39
 83 586 83 586 130.5 611 c 128,-1,40
 178 636 178 636 242 648 c 128,-1,41
 306 660 306 660 374 660 c 0,42,43
 389 660 389 660 414.5 659 c 128,-1,44
 440 658 440 658 464.5 656.5 c 128,-1,45
 489 655 489 655 499 653 c 1,46,-1
 545 597 l 2,47,48
 615 512 615 512 668 421.5 c 128,-1,49
 721 331 721 331 750.5 247.5 c 128,-1,50
 780 164 780 164 780 99 c 0,51,52
 780 62 780 62 771.5 25.5 c 128,-1,53
 763 -11 763 -11 745 -46 c 1,0,-1
EndSplineSet
EndChar

StartChar: uni0805
Encoding: 2053 2053 9
Width: 926
GlyphClass: 2
Flags: W
AnchorPoint: "+BBEENQQ3BEsEPARPBD0EPQQ+BDUA--2" 48 732 basechar 0
AnchorPoint: "+BBEENQQ3BEsEPARPBD0EPQQ+BDUA--1" 341 732 basechar 0
AnchorPoint: "+BBEENQQ3BEsEPARPBD0EPQQ+BDUA--0" 634 732 basechar 0
LayerCount: 2
Fore
SplineSet
813 -46 m 1,0,-1
 696 0 l 1,1,2
 729 62 729 62 729 130 c 0,3,4
 729 188 729 188 704 261.5 c 128,-1,5
 679 335 679 335 634 416 c 1,6,7
 567 382 567 382 510 344 c 128,-1,8
 453 306 453 306 414.5 265.5 c 128,-1,9
 376 225 376 225 364 183 c 1,10,-1
 270 237 l 1,11,12
 285 275 285 275 322 310 c 128,-1,13
 359 345 359 345 407.5 375.5 c 128,-1,14
 456 406 456 406 506.5 431 c 128,-1,15
 557 456 557 456 598 475 c 1,16,17
 559 536 559 536 515 593 c 1,18,19
 402 577 402 577 330 553.5 c 128,-1,20
 258 530 258 530 215 492 c 128,-1,21
 172 454 172 454 146 393 c 1,22,-1
 63 468 l 1,23,24
 83 519 83 519 124 552 c 128,-1,25
 165 585 165 585 218 605.5 c 128,-1,26
 271 626 271 626 327.5 637 c 128,-1,27
 384 648 384 648 433 655 c 0,28,29
 510 666 510 666 551 666 c 0,30,31
 562 666 562 666 574 651 c 128,-1,32
 586 636 586 636 595 624 c 0,33,34
 644 557 644 557 689.5 485.5 c 128,-1,35
 735 414 735 414 770.5 343.5 c 128,-1,36
 806 273 806 273 827 210.5 c 128,-1,37
 848 148 848 148 848 99 c 0,38,39
 848 62 848 62 839.5 25.5 c 128,-1,40
 831 -11 831 -11 813 -46 c 1,0,-1
EndSplineSet
EndChar

StartChar: uni0806
Encoding: 2054 2054 10
Width: 878
GlyphClass: 2
Flags: W
AnchorPoint: "+BBEENQQ3BEsEPARPBD0EPQQ+BDUA--2" 48 791 basechar 0
AnchorPoint: "+BBEENQQ3BEsEPARPBD0EPQQ+BDUA--1" 410 791 basechar 0
AnchorPoint: "+BBEENQQ3BEsEPARPBD0EPQQ+BDUA--0" 683 732 basechar 0
LayerCount: 2
Fore
SplineSet
330 -53 m 1,0,-1
 276 48 l 1,1,2
 314 75 314 75 365.5 82 c 128,-1,3
 417 89 417 89 465 89 c 0,4,5
 507 89 507 89 546 91 c 128,-1,6
 585 93 585 93 615.5 101.5 c 128,-1,7
 646 110 646 110 663.5 128.5 c 128,-1,8
 681 147 681 147 681 181 c 0,9,10
 681 198 681 198 672.5 240 c 128,-1,11
 664 282 664 282 652 333 c 1,12,13
 560 267 560 267 493 235.5 c 128,-1,14
 426 204 426 204 383.5 194.5 c 128,-1,15
 341 185 341 185 321 185 c 256,16,17
 301 185 301 185 283.5 194.5 c 128,-1,18
 266 204 266 204 260 226 c 0,19,20
 239 305 239 305 223 375.5 c 128,-1,21
 207 446 207 446 188 501 c 128,-1,22
 169 556 169 556 140 588 c 128,-1,23
 111 620 111 620 63 623 c 1,24,-1
 104 733 l 1,25,26
 153 727 153 727 183.5 700.5 c 128,-1,27
 214 674 214 674 232.5 632 c 128,-1,28
 251 590 251 590 264 537 c 1,29,30
 312 568 312 568 374.5 597 c 128,-1,31
 437 626 437 626 502.5 645 c 128,-1,32
 568 664 568 664 622 664 c 0,33,34
 643 664 643 664 664 634 c 128,-1,35
 685 604 685 604 704.5 554.5 c 128,-1,36
 724 505 724 505 741.5 447 c 128,-1,37
 759 389 759 389 772 333 c 128,-1,38
 785 277 785 277 792.5 232.5 c 128,-1,39
 800 188 800 188 800 166 c 0,40,41
 800 126 800 126 777 102 c 128,-1,42
 754 78 754 78 715.5 64 c 128,-1,43
 677 50 677 50 628 40.5 c 128,-1,44
 579 31 579 31 526 20.5 c 128,-1,45
 473 10 473 10 422.5 -7 c 128,-1,46
 372 -24 372 -24 330 -53 c 1,0,-1
327 254 m 1,47,48
 378 256 378 256 430 282.5 c 128,-1,49
 482 309 482 309 532 351 c 128,-1,50
 582 393 582 393 623 440 c 1,51,52
 607 498 607 498 591 539 c 128,-1,53
 575 580 575 580 564 580 c 0,54,55
 518 580 518 580 444 545.5 c 128,-1,56
 370 511 370 511 286 435 c 1,57,58
 295 392 295 392 304.5 346 c 128,-1,59
 314 300 314 300 327 254 c 1,47,48
EndSplineSet
EndChar

StartChar: uni0807
Encoding: 2055 2055 11
Width: 945
GlyphClass: 2
Flags: W
AnchorPoint: "+BBEENQQ3BEsEPARPBD0EPQQ+BDUA--2" 48 751 basechar 0
AnchorPoint: "+BBEENQQ3BEsEPARPBD0EPQQ+BDUA--1" 361 751 basechar 0
AnchorPoint: "+BBEENQQ3BEsEPARPBD0EPQQ+BDUA--0" 634 732 basechar 0
LayerCount: 2
Fore
SplineSet
832 -46 m 1,0,-1
 715 0 l 1,1,2
 748 60 748 60 748 129 c 0,3,4
 748 203 748 203 711 292 c 1,5,6
 673 269 673 269 631.5 241.5 c 128,-1,7
 590 214 590 214 553.5 183 c 128,-1,8
 517 152 517 152 492 119 c 128,-1,9
 467 86 467 86 461 51 c 1,10,-1
 346 80 l 1,11,12
 297 299 297 299 218 418 c 128,-1,13
 139 537 139 537 15 562 c 1,14,-1
 46 677 l 1,15,16
 87 671 87 671 123.5 650.5 c 128,-1,17
 160 630 160 630 194 598 c 1,18,19
 240 630 240 630 310 644.5 c 128,-1,20
 380 659 380 659 456 659 c 0,21,22
 471 659 471 659 498 657.5 c 128,-1,23
 525 656 525 656 550.5 654 c 128,-1,24
 576 652 576 652 586 650 c 1,25,-1
 632 596 l 2,26,27
 703 512 703 512 756 422 c 128,-1,28
 809 332 809 332 838 248 c 128,-1,29
 867 164 867 164 867 99 c 0,30,31
 867 21 867 21 832 -46 c 1,0,-1
337 370 m 1,32,33
 374 405 374 405 420 433.5 c 128,-1,34
 466 462 466 462 509 484.5 c 128,-1,35
 552 507 552 507 580 523 c 1,36,37
 570 538 570 538 559 553 c 128,-1,38
 548 568 548 568 537 583 c 1,39,40
 420 581 420 581 357.5 561 c 128,-1,41
 295 541 295 541 263 515 c 1,42,43
 307 449 307 449 337 370 c 1,32,33
393 142 m 1,44,45
 419 177 419 177 457.5 208.5 c 128,-1,46
 496 240 496 240 538.5 267 c 128,-1,47
 581 294 581 294 619.5 315 c 128,-1,48
 658 336 658 336 685 351 c 1,49,50
 657 410 657 410 616 471 c 1,51,52
 572 444 572 444 523.5 406.5 c 128,-1,53
 475 369 475 369 435.5 327 c 128,-1,54
 396 285 396 285 376 243 c 1,55,56
 382 218 382 218 386.5 192.5 c 128,-1,57
 391 167 391 167 393 142 c 1,44,45
EndSplineSet
EndChar

StartChar: uni0808
Encoding: 2056 2056 12
Width: 953
GlyphClass: 2
Flags: W
AnchorPoint: "+BBEENQQ3BEsEPARPBD0EPQQ+BDUA--2" 48 732 basechar 0
AnchorPoint: "+BBEENQQ3BEsEPARPBD0EPQQ+BDUA--1" 488 742 basechar 0
AnchorPoint: "+BBEENQQ3BEsEPARPBD0EPQQ+BDUA--0" 781 732 basechar 0
LayerCount: 2
Fore
SplineSet
438 -39 m 0,0,1
 384 -39 384 -39 339 -9 c 128,-1,2
 294 21 294 21 257 71.5 c 128,-1,3
 220 122 220 122 191 184 c 128,-1,4
 162 246 162 246 141 309 c 0,5,6
 114 390 114 390 101 456 c 128,-1,7
 88 522 88 522 88 573 c 1,8,9
 101 589 101 589 240 611 c 256,10,11
 379 633 379 633 434 667 c 1,12,-1
 464 605 l 1,13,14
 422 583 422 583 377.5 570.5 c 128,-1,15
 333 558 333 558 277 544 c 0,16,17
 243 536 243 536 229 529 c 128,-1,18
 215 522 215 522 215 512 c 0,19,20
 215 477 215 477 225 430.5 c 128,-1,21
 235 384 235 384 252.5 333 c 128,-1,22
 270 282 270 282 293 233.5 c 128,-1,23
 316 185 316 185 342.5 145.5 c 128,-1,24
 369 106 369 106 396.5 82.5 c 128,-1,25
 424 59 424 59 450 59 c 0,26,27
 520 59 520 59 587 134 c 0,28,29
 633 185 633 185 668.5 256.5 c 128,-1,30
 704 328 704 328 724.5 405.5 c 128,-1,31
 745 483 745 483 745 551 c 0,32,33
 745 569 745 569 719 569 c 0,34,35
 690 569 690 569 660.5 557.5 c 128,-1,36
 631 546 631 546 611 528 c 128,-1,37
 591 510 591 510 591 489 c 0,38,39
 591 475 591 475 596.5 465 c 128,-1,40
 602 455 602 455 609 446 c 1,41,-1
 523 360 l 1,42,43
 495 389 495 389 484.5 416 c 128,-1,44
 474 443 474 443 474 478 c 0,45,46
 474 493 474 493 494 515.5 c 128,-1,47
 514 538 514 538 546 563 c 128,-1,48
 578 588 578 588 615.5 609.5 c 128,-1,49
 653 631 653 631 688.5 645 c 128,-1,50
 724 659 724 659 751 659 c 0,51,52
 794 659 794 659 826.5 631 c 128,-1,53
 859 603 859 603 865 568 c 1,54,55
 863 503 863 503 841.5 433.5 c 128,-1,56
 820 364 820 364 788 299 c 128,-1,57
 756 234 756 234 721 180 c 0,58,59
 684 122 684 122 638.5 72.5 c 128,-1,60
 593 23 593 23 542 -8 c 128,-1,61
 491 -39 491 -39 438 -39 c 0,0,1
EndSplineSet
EndChar

StartChar: uni0809
Encoding: 2057 2057 13
Width: 1094
GlyphClass: 2
Flags: W
AnchorPoint: "+BBEENQQ3BEsEPARPBD0EPQQ+BDUA--2" 48 732 basechar 0
AnchorPoint: "+BBEENQQ3BEsEPARPBD0EPQQ+BDUA--1" 537 732 basechar 0
AnchorPoint: "+BBEENQQ3BEsEPARPBD0EPQQ+BDUA--0" 888 751 basechar 0
LayerCount: 2
Fore
SplineSet
686 -32 m 1,0,-1
 563 0 l 1,1,2
 569 38 569 38 594.5 86.5 c 128,-1,3
 620 135 620 135 654 189 c 128,-1,4
 688 243 688 243 721 298.5 c 128,-1,5
 754 354 754 354 776 406.5 c 128,-1,6
 798 459 798 459 798 504 c 0,7,8
 798 548 798 548 774 573.5 c 128,-1,9
 750 599 750 599 709 599 c 0,10,11
 672 599 672 599 637 569 c 128,-1,12
 602 539 602 539 570.5 490.5 c 128,-1,13
 539 442 539 442 513 385.5 c 128,-1,14
 487 329 487 329 468 274.5 c 128,-1,15
 449 220 449 220 438 177.5 c 128,-1,16
 427 135 427 135 426 116 c 1,17,-1
 298 102 l 1,18,19
 299 119 299 119 310.5 161.5 c 128,-1,20
 322 204 322 204 344 260.5 c 128,-1,21
 366 317 366 317 397 379 c 128,-1,22
 428 441 428 441 467 497 c 1,23,24
 458 567 458 567 393 567 c 0,25,26
 357 567 357 567 327 542.5 c 128,-1,27
 297 518 297 518 273 479 c 128,-1,28
 249 440 249 440 231 395 c 128,-1,29
 213 350 213 350 200.5 307.5 c 128,-1,30
 188 265 188 265 180 235 c 1,31,-1
 49 208 l 1,32,33
 62 268 62 268 86 329.5 c 128,-1,34
 110 391 110 391 143 447 c 128,-1,35
 176 503 176 503 216 547.5 c 128,-1,36
 256 592 256 592 303 617.5 c 128,-1,37
 350 643 350 643 402 643 c 0,38,39
 491 643 491 643 528 574 c 1,40,41
 570 618 570 618 618 646 c 128,-1,42
 666 674 666 674 719 674 c 0,43,44
 760 674 760 674 793 658.5 c 128,-1,45
 826 643 826 643 848 612 c 1,46,47
 876 646 876 646 917.5 673 c 128,-1,48
 959 700 959 700 1021 719 c 1,49,-1
 1045 610 l 1,50,51
 985 590 985 590 943.5 571 c 128,-1,52
 902 552 902 552 877 508 c 0,53,54
 878 507 878 507 878 503 c 0,55,56
 878 451 878 451 859.5 393.5 c 128,-1,57
 841 336 841 336 813.5 277 c 128,-1,58
 786 218 786 218 757.5 162 c 128,-1,59
 729 106 729 106 709 56 c 128,-1,60
 689 6 689 6 686 -32 c 1,0,-1
EndSplineSet
EndChar

StartChar: uni080A
Encoding: 2058 2058 14
Width: 736
GlyphClass: 2
Flags: W
AnchorPoint: "+BBEENQQ3BEsEPARPBD0EPQQ+BDUA--2" 48 732 basechar 0
AnchorPoint: "+BBEENQQ3BEsEPARPBD0EPQQ+BDUA--1" 361 732 basechar 0
AnchorPoint: "+BBEENQQ3BEsEPARPBD0EPQQ+BDUA--0" 585 732 basechar 0
LayerCount: 2
Fore
SplineSet
438 -42 m 0,0,1
 373 -42 373 -42 330.5 -35.5 c 128,-1,2
 288 -29 288 -29 259 -21 c 128,-1,3
 230 -13 230 -13 206 -6.5 c 128,-1,4
 182 0 182 0 154 0 c 0,5,6
 138 0 138 0 119 -1.5 c 128,-1,7
 100 -3 100 -3 88 -6 c 1,8,-1
 107 109 l 1,9,10
 117 111 117 111 128 112 c 128,-1,11
 139 113 139 113 159 113 c 0,12,13
 191 113 191 113 219.5 101 c 128,-1,14
 248 89 248 89 279 74 c 128,-1,15
 310 59 310 59 348 47 c 128,-1,16
 386 35 386 35 438 35 c 0,17,18
 482 35 482 35 509 54.5 c 128,-1,19
 536 74 536 74 536 114 c 0,20,21
 536 168 536 168 524.5 250 c 128,-1,22
 513 332 513 332 513 429 c 0,23,24
 513 440 513 440 513 452 c 128,-1,25
 513 464 513 464 514 475 c 1,26,27
 480 449 480 449 434.5 434.5 c 128,-1,28
 389 420 389 420 333 420 c 0,29,30
 221 420 221 420 160 466.5 c 128,-1,31
 99 513 99 513 99 599 c 0,32,33
 99 613 99 613 100.5 628 c 128,-1,34
 102 643 102 643 106 658 c 1,35,-1
 220 627 l 1,36,37
 218 617 218 617 217 607.5 c 128,-1,38
 216 598 216 598 216 588 c 0,39,40
 216 542 216 542 246.5 520 c 128,-1,41
 277 498 277 498 350 498 c 0,42,43
 430 498 430 498 470.5 540 c 128,-1,44
 511 582 511 582 530 655 c 1,45,-1
 648 629 l 1,46,47
 637 590 637 590 630.5 529 c 128,-1,48
 624 468 624 468 620.5 400 c 128,-1,49
 617 332 617 332 616 268 c 128,-1,50
 615 204 615 204 615 157 c 2,51,-1
 615 85 l 2,52,53
 615 68 615 68 606.5 46 c 128,-1,54
 598 24 598 24 578 4 c 128,-1,55
 558 -16 558 -16 524 -29 c 128,-1,56
 490 -42 490 -42 438 -42 c 0,0,1
EndSplineSet
EndChar

StartChar: uni080B
Encoding: 2059 2059 15
Width: 607
GlyphClass: 2
Flags: W
AnchorPoint: "+BBEENQQ3BEsEPARPBD0EPQQ+BDUA--2" -40 732 basechar 0
AnchorPoint: "+BBEENQQ3BEsEPARPBD0EPQQ+BDUA--1" 305 947 basechar 0
AnchorPoint: "+BBEENQQ3BEsEPARPBD0EPQQ+BDUA--0" 488 732 basechar 0
LayerCount: 2
Fore
SplineSet
136 -28 m 0,0,1
 66 -28 66 -28 20 -5 c 1,2,-1
 42 83 l 1,3,4
 68 116 68 116 101.5 165 c 128,-1,5
 135 214 135 214 169 272.5 c 128,-1,6
 203 331 203 331 232 393.5 c 128,-1,7
 261 456 261 456 279 516.5 c 128,-1,8
 297 577 297 577 297 629 c 0,9,10
 297 676 297 676 273 714 c 128,-1,11
 249 752 249 752 202 768 c 1,12,-1
 251 881 l 1,13,14
 305 853 305 853 335 814 c 128,-1,15
 365 775 365 775 377 735 c 128,-1,16
 389 695 389 695 389 664 c 0,17,18
 389 590 389 590 363 515 c 128,-1,19
 337 440 337 440 295 364 c 128,-1,20
 253 288 253 288 202.5 212 c 128,-1,21
 152 136 152 136 102 60 c 1,22,23
 124 49 124 49 150 49 c 0,24,25
 194 49 194 49 231.5 58.5 c 128,-1,26
 269 68 269 68 305 81 c 128,-1,27
 341 94 341 94 378.5 103.5 c 128,-1,28
 416 113 416 113 458 113 c 0,29,30
 467 113 467 113 483.5 112 c 128,-1,31
 500 111 500 111 510 109 c 1,32,-1
 529 -6 l 1,33,34
 517 -2 517 -2 496 -1 c 128,-1,35
 475 0 475 0 458 0 c 0,36,37
 401 0 401 0 351.5 -7 c 128,-1,38
 302 -14 302 -14 251 -21 c 128,-1,39
 200 -28 200 -28 136 -28 c 0,0,1
EndSplineSet
EndChar

StartChar: uni080C
Encoding: 2060 2060 16
Width: 912
GlyphClass: 2
Flags: W
AnchorPoint: "+BBEENQQ3BEsEPARPBD0EPQQ+BDUA--2" 48 732 basechar 0
AnchorPoint: "+BBEENQQ3BEsEPARPBD0EPQQ+BDUA--1" 439 732 basechar 0
AnchorPoint: "+BBEENQQ3BEsEPARPBD0EPQQ+BDUA--0" 751 732 basechar 0
LayerCount: 2
Fore
SplineSet
614 -43 m 0,0,1
 542 -43 542 -43 489 -38 c 128,-1,2
 436 -33 436 -33 395 -25 c 128,-1,3
 354 -17 354 -17 318 -9.5 c 128,-1,4
 282 -2 282 -2 244.5 3 c 128,-1,5
 207 8 207 8 161 8 c 0,6,7
 145 8 145 8 119 6.5 c 128,-1,8
 93 5 93 5 81 2 c 1,9,-1
 100 117 l 1,10,11
 110 119 110 119 128 120 c 128,-1,12
 146 121 146 121 166 121 c 0,13,14
 207 121 207 121 238 112 c 128,-1,15
 269 103 269 103 300 90.5 c 128,-1,16
 331 78 331 78 371 65 c 128,-1,17
 411 52 411 52 469 43 c 128,-1,18
 527 34 527 34 614 34 c 0,19,20
 658 34 658 34 684.5 53.5 c 128,-1,21
 711 73 711 73 711 112 c 0,22,23
 711 160 711 160 702 233.5 c 128,-1,24
 693 307 693 307 690 392 c 1,25,26
 667 367 667 367 636.5 353.5 c 128,-1,27
 606 340 606 340 566 340 c 0,28,29
 509 340 509 340 469 361.5 c 128,-1,30
 429 383 429 383 408 423 c 1,31,32
 383 386 383 386 346.5 363 c 128,-1,33
 310 340 310 340 259 340 c 0,34,35
 171 340 171 340 124.5 390.5 c 128,-1,36
 78 441 78 441 78 530 c 0,37,38
 78 556 78 556 82 592 c 128,-1,39
 86 628 86 628 96 662 c 1,40,-1
 201 631 l 1,41,42
 194 603 194 603 190 575.5 c 128,-1,43
 186 548 186 548 186 528 c 0,44,45
 186 502 186 502 191.5 476 c 128,-1,46
 197 450 197 450 214.5 433.5 c 128,-1,47
 232 417 232 417 267 417 c 0,48,49
 299 417 299 417 322 440 c 128,-1,50
 345 463 345 463 361 500.5 c 128,-1,51
 377 538 377 538 388 582 c 0,52,53
 390 602 390 602 394 622.5 c 128,-1,54
 398 643 398 643 403 662 c 1,55,-1
 508 631 l 1,56,57
 501 603 501 603 497 575.5 c 128,-1,58
 493 548 493 548 493 528 c 0,59,60
 493 502 493 502 498.5 476 c 128,-1,61
 504 450 504 450 521.5 433.5 c 128,-1,62
 539 417 539 417 573 417 c 0,63,64
 606 417 606 417 628.5 440 c 128,-1,65
 651 463 651 463 667 501 c 128,-1,66
 683 539 683 539 695 583 c 0,67,68
 697 602 697 602 699.5 620.5 c 128,-1,69
 702 639 702 639 706 658 c 1,70,-1
 824 632 l 1,71,72
 813 593 813 593 806.5 532 c 128,-1,73
 800 471 800 471 796.5 401.5 c 128,-1,74
 793 332 793 332 792 267 c 128,-1,75
 791 202 791 202 791 155 c 2,76,-1
 791 83 l 2,77,78
 791 60 791 60 775.5 30.5 c 128,-1,79
 760 1 760 1 721.5 -21 c 128,-1,80
 683 -43 683 -43 614 -43 c 0,0,1
EndSplineSet
EndChar

StartChar: uni080D
Encoding: 2061 2061 17
Width: 727
GlyphClass: 2
Flags: W
AnchorPoint: "+BBEENQQ3BEsEPARPBD0EPQQ+BDUA--2" -137 732 basechar 0
AnchorPoint: "+BBEENQQ3BEsEPARPBD0EPQQ+BDUA--1" 390 732 basechar 0
AnchorPoint: "+BBEENQQ3BEsEPARPBD0EPQQ+BDUA--0" 551 732 basechar 0
LayerCount: 2
Fore
SplineSet
402 -34 m 0,0,1
 354 -34 354 -34 323 -30 c 128,-1,2
 292 -26 292 -26 267 -20 c 128,-1,3
 242 -14 242 -14 213.5 -10 c 128,-1,4
 185 -6 185 -6 141 -6 c 0,5,6
 125 -6 125 -6 111 -7 c 128,-1,7
 97 -8 97 -8 84 -12 c 1,8,-1
 104 103 l 1,9,10
 114 105 114 105 123 106 c 128,-1,11
 132 107 132 107 142 107 c 0,12,13
 184 107 184 107 212.5 97.5 c 128,-1,14
 241 88 241 88 266 75 c 128,-1,15
 291 62 291 62 320.5 52.5 c 128,-1,16
 350 43 350 43 393 43 c 0,17,18
 438 43 438 43 464 70 c 128,-1,19
 490 97 490 97 502.5 140 c 128,-1,20
 515 183 515 183 518.5 233 c 128,-1,21
 522 283 522 283 522 329 c 0,22,23
 522 379 522 379 518 424.5 c 128,-1,24
 514 470 514 470 498.5 505.5 c 128,-1,25
 483 541 483 541 448 561.5 c 128,-1,26
 413 582 413 582 351 582 c 0,27,28
 282 582 282 582 237.5 567.5 c 128,-1,29
 193 553 193 553 166 530 c 1,30,-1
 117 544 l 1,31,32
 108 571 108 571 99 616 c 128,-1,33
 90 661 90 661 84 710 c 128,-1,34
 78 759 78 759 78 799 c 0,35,36
 78 846 78 846 82 884 c 128,-1,37
 86 922 86 922 94 962 c 1,38,-1
 214 937 l 1,39,40
 199 879 199 879 189 812 c 128,-1,41
 179 745 179 745 179 677 c 0,42,43
 179 664 179 664 179.5 651 c 128,-1,44
 180 638 180 638 181 624 c 1,45,46
 225 641 225 641 275 650 c 128,-1,47
 325 659 325 659 375 659 c 0,48,49
 459 659 459 659 511.5 638 c 128,-1,50
 564 617 564 617 591.5 574.5 c 128,-1,51
 619 532 619 532 629 467 c 128,-1,52
 639 402 639 402 639 314 c 0,53,54
 639 265 639 265 636 215 c 128,-1,55
 633 165 633 165 621 120.5 c 128,-1,56
 609 76 609 76 583.5 41 c 128,-1,57
 558 6 558 6 514 -14 c 128,-1,58
 470 -34 470 -34 402 -34 c 0,0,1
EndSplineSet
EndChar

StartChar: uni080E
Encoding: 2062 2062 18
Width: 771
GlyphClass: 2
Flags: W
AnchorPoint: "+BBEENQQ3BEsEPARPBD0EPQQ+BDUA--2" -59 732 basechar 0
AnchorPoint: "+BBEENQQ3BEsEPARPBD0EPQQ+BDUA--1" 502 732 basechar 0
AnchorPoint: "+BBEENQQ3BEsEPARPBD0EPQQ+BDUA--0" 605 732 basechar 0
LayerCount: 2
Fore
SplineSet
219 -38 m 1,0,1
 212 37 212 37 201 91 c 128,-1,2
 190 145 190 145 174.5 186.5 c 128,-1,3
 159 228 159 228 140.5 263 c 128,-1,4
 122 298 122 298 101 334 c 0,5,6
 97 341 97 341 87.5 357 c 128,-1,7
 78 373 78 373 78 386 c 0,8,9
 78 397 78 397 86 405.5 c 128,-1,10
 94 414 94 414 106 423 c 0,11,12
 117 431 117 431 148 451.5 c 128,-1,13
 179 472 179 472 217 505.5 c 128,-1,14
 255 539 255 539 285 584 c 1,15,16
 260 598 260 598 236.5 609.5 c 128,-1,17
 213 621 213 621 191 629 c 1,18,19
 194 647 194 647 197.5 671.5 c 128,-1,20
 201 696 201 696 203.5 719.5 c 128,-1,21
 206 743 206 743 206 759 c 0,22,23
 206 786 206 786 194 814 c 128,-1,24
 182 842 182 842 160 865.5 c 128,-1,25
 138 889 138 889 106 899 c 1,26,-1
 161 1001 l 1,27,28
 215 973 215 973 244.5 936 c 128,-1,29
 274 899 274 899 285.5 861 c 128,-1,30
 297 823 297 823 297 792 c 256,31,32
 297 761 297 761 290 729.5 c 128,-1,33
 283 698 283 698 271 666 c 1,34,35
 321 647 321 647 380 614 c 128,-1,36
 439 581 439 581 497.5 539.5 c 128,-1,37
 556 498 556 498 604.5 454.5 c 128,-1,38
 653 411 653 411 682.5 372 c 128,-1,39
 712 333 712 333 712 304 c 0,40,41
 712 282 712 282 682.5 253.5 c 128,-1,42
 653 225 653 225 606 195.5 c 128,-1,43
 559 166 559 166 506.5 139.5 c 128,-1,44
 454 113 454 113 407 92.5 c 128,-1,45
 360 72 360 72 331 63 c 1,46,47
 335 42 335 42 336.5 22 c 128,-1,48
 338 2 338 2 338 -16 c 1,49,-1
 219 -38 l 1,0,1
314 127 m 1,50,51
 403 163 403 163 477.5 209 c 128,-1,52
 552 255 552 255 590 306 c 1,53,54
 557 368 557 368 498 426 c 128,-1,55
 439 484 439 484 371 531 c 1,56,57
 350 506 350 506 316 479 c 128,-1,58
 282 452 282 452 242 427 c 128,-1,59
 202 402 202 402 162 380 c 1,60,61
 213 333 213 333 252.5 265.5 c 128,-1,62
 292 198 292 198 314 127 c 1,50,51
EndSplineSet
EndChar

StartChar: uni080F
Encoding: 2063 2063 19
Width: 898
GlyphClass: 2
Flags: W
AnchorPoint: "+BBEENQQ3BEsEPARPBD0EPQQ+BDUA--2" 48 732 basechar 0
AnchorPoint: "+BBEENQQ3BEsEPARPBD0EPQQ+BDUA--1" 458 732 basechar 0
AnchorPoint: "+BBEENQQ3BEsEPARPBD0EPQQ+BDUA--0" 729 732 basechar 0
LayerCount: 2
Fore
SplineSet
453 75 m 0,0,1
 395 75 395 75 345.5 103 c 128,-1,2
 296 131 296 131 255.5 177.5 c 128,-1,3
 215 224 215 224 183.5 280.5 c 128,-1,4
 152 337 152 337 131 395 c 128,-1,5
 110 453 110 453 99 504.5 c 128,-1,6
 88 556 88 556 88 591 c 1,7,8
 102 610 102 610 151.5 626.5 c 128,-1,9
 201 643 201 643 279 653.5 c 128,-1,10
 357 664 357 664 456 664 c 0,11,12
 603 664 603 664 687.5 640.5 c 128,-1,13
 772 617 772 617 809 591 c 1,14,15
 809 586 809 586 809.5 580.5 c 128,-1,16
 810 575 810 575 810 569 c 0,17,18
 810 514 810 514 792 447.5 c 128,-1,19
 774 381 774 381 741 315.5 c 128,-1,20
 708 250 708 250 663 195.5 c 128,-1,21
 618 141 618 141 565 108 c 128,-1,22
 512 75 512 75 453 75 c 0,0,1
465 173 m 256,23,24
 497 173 497 173 532.5 196 c 128,-1,25
 568 219 568 219 601.5 257 c 128,-1,26
 635 295 635 295 662.5 341 c 128,-1,27
 690 387 690 387 706.5 435.5 c 128,-1,28
 723 484 723 484 723 526 c 0,29,30
 723 540 723 540 699 551.5 c 128,-1,31
 675 563 675 563 636 570.5 c 128,-1,32
 597 578 597 578 550 582 c 128,-1,33
 503 586 503 586 456 586 c 0,34,35
 397 586 397 586 341.5 579 c 128,-1,36
 286 572 286 572 250.5 558.5 c 128,-1,37
 215 545 215 545 215 526 c 0,38,39
 215 490 215 490 230.5 444 c 128,-1,40
 246 398 246 398 272.5 350.5 c 128,-1,41
 299 303 299 303 331.5 263 c 128,-1,42
 364 223 364 223 398.5 198 c 128,-1,43
 433 173 433 173 465 173 c 256,23,24
EndSplineSet
EndChar

StartChar: uni0810
Encoding: 2064 2064 20
Width: 754
GlyphClass: 2
Flags: W
AnchorPoint: "+BBEENQQ3BEsEPARPBD0EPQQ+BDUA--2" 48 732 basechar 0
AnchorPoint: "+BBEENQQ3BEsEPARPBD0EPQQ+BDUA--1" 380 732 basechar 0
AnchorPoint: "+BBEENQQ3BEsEPARPBD0EPQQ+BDUA--0" 554 732 basechar 0
LayerCount: 2
Fore
SplineSet
430 -29 m 0,0,1
 382 -29 382 -29 346 -25 c 128,-1,2
 310 -21 310 -21 278 -15 c 128,-1,3
 246 -9 246 -9 212.5 -5 c 128,-1,4
 179 -1 179 -1 135 -1 c 0,5,6
 119 -1 119 -1 105 -2 c 128,-1,7
 91 -3 91 -3 79 -7 c 1,8,-1
 98 108 l 1,9,10
 108 110 108 110 117.5 111 c 128,-1,11
 127 112 127 112 136 112 c 0,12,13
 178 112 178 112 212 102.5 c 128,-1,14
 246 93 246 93 277 80 c 128,-1,15
 308 67 308 67 342.5 57.5 c 128,-1,16
 377 48 377 48 420 48 c 0,17,18
 465 48 465 48 491 73 c 128,-1,19
 517 98 517 98 529.5 139 c 128,-1,20
 542 180 542 180 545.5 228.5 c 128,-1,21
 549 277 549 277 549 323 c 0,22,23
 549 373 549 373 545 420 c 128,-1,24
 541 467 541 467 525 504.5 c 128,-1,25
 509 542 509 542 474 564 c 128,-1,26
 439 586 439 586 377 586 c 0,27,28
 343 586 343 586 307 575 c 128,-1,29
 271 564 271 564 238.5 547.5 c 128,-1,30
 206 531 206 531 180.5 514.5 c 128,-1,31
 155 498 155 498 141 486 c 1,32,-1
 78 578 l 1,33,34
 144 619 144 619 196.5 637 c 128,-1,35
 249 655 249 655 297.5 659.5 c 128,-1,36
 346 664 346 664 401 664 c 0,37,38
 485 664 485 664 537.5 641.5 c 128,-1,39
 590 619 590 619 618 574 c 128,-1,40
 646 529 646 529 656 462.5 c 128,-1,41
 666 396 666 396 666 308 c 0,42,43
 666 259 666 259 663 210 c 128,-1,44
 660 161 660 161 648 118 c 128,-1,45
 636 75 636 75 610.5 42 c 128,-1,46
 585 9 585 9 541.5 -10 c 128,-1,47
 498 -29 498 -29 430 -29 c 0,0,1
EndSplineSet
EndChar

StartChar: uni0811
Encoding: 2065 2065 21
Width: 1072
GlyphClass: 2
Flags: W
AnchorPoint: "+BBEENQQ3BEsEPARPBD0EPQQ+BDUA--2" 48 732 basechar 0
AnchorPoint: "+BBEENQQ3BEsEPARPBD0EPQQ+BDUA--1" 624 732 basechar 0
AnchorPoint: "+BBEENQQ3BEsEPARPBD0EPQQ+BDUA--0" 905 732 basechar 0
LayerCount: 2
Fore
SplineSet
792 -37 m 1,0,-1
 669 0 l 1,1,2
 675 35 675 35 700.5 82 c 128,-1,3
 726 129 726 129 760 182 c 128,-1,4
 794 235 794 235 827 290 c 128,-1,5
 860 345 860 345 882 397.5 c 128,-1,6
 904 450 904 450 904 495 c 0,7,8
 904 538 904 538 880 563.5 c 128,-1,9
 856 589 856 589 815 589 c 0,10,11
 778 589 778 589 743 559 c 128,-1,12
 708 529 708 529 676.5 481 c 128,-1,13
 645 433 645 433 619 376 c 128,-1,14
 593 319 593 319 574 264.5 c 128,-1,15
 555 210 555 210 544 167.5 c 128,-1,16
 533 125 533 125 532 106 c 1,17,-1
 404 92 l 1,18,19
 405 109 405 109 416.5 151 c 128,-1,20
 428 193 428 193 450 250 c 128,-1,21
 472 307 472 307 502.5 368.5 c 128,-1,22
 533 430 533 430 572 486 c 1,23,24
 561 551 561 551 499 551 c 0,25,26
 463 551 463 551 433 527.5 c 128,-1,27
 403 504 403 504 379 465.5 c 128,-1,28
 355 427 355 427 337 383 c 128,-1,29
 319 339 319 339 306.5 297 c 128,-1,30
 294 255 294 255 286 225 c 1,31,32
 233 249 233 249 192 261.5 c 128,-1,33
 151 274 151 274 113 274 c 0,34,35
 94 274 94 274 75.5 272 c 128,-1,36
 57 270 57 270 38 262 c 1,37,-1
 20 367 l 1,38,39
 34 372 34 372 49 373.5 c 128,-1,40
 64 375 64 375 79 375 c 0,41,42
 111 375 111 375 142.5 367.5 c 128,-1,43
 174 360 174 360 204 349 c 1,44,45
 237 424 237 424 283 487 c 128,-1,46
 329 550 329 550 386 588 c 128,-1,47
 443 626 443 626 508 626 c 0,48,49
 595 626 595 626 632 562 c 1,50,51
 674 608 674 608 722.5 636 c 128,-1,52
 771 664 771 664 825 664 c 0,53,54
 893 664 893 664 938.5 621 c 128,-1,55
 984 578 984 578 984 494 c 0,56,57
 984 442 984 442 965.5 384.5 c 128,-1,58
 947 327 947 327 919.5 268 c 128,-1,59
 892 209 892 209 863.5 153 c 128,-1,60
 835 97 835 97 815 48.5 c 128,-1,61
 795 0 795 0 792 -37 c 1,0,-1
EndSplineSet
EndChar

StartChar: uni0812
Encoding: 2066 2066 22
Width: 728
GlyphClass: 2
Flags: W
AnchorPoint: "+BBEENQQ3BEsEPARPBD0EPQQ+BDUA--2" 48 732 basechar 0
AnchorPoint: "+BBEENQQ3BEsEPARPBD0EPQQ+BDUA--1" 361 742 basechar 0
AnchorPoint: "+BBEENQQ3BEsEPARPBD0EPQQ+BDUA--0" 561 732 basechar 0
LayerCount: 2
Fore
SplineSet
399 -40 m 1,0,-1
 286 0 l 1,1,2
 302 38 302 38 302 87 c 0,3,4
 302 193 302 193 239 316.5 c 128,-1,5
 176 440 176 440 68 569 c 1,6,7
 151 629 151 629 223.5 653.5 c 128,-1,8
 296 678 296 678 366 678 c 0,9,10
 433 678 433 678 484 657 c 128,-1,11
 535 636 535 636 570 602 c 128,-1,12
 605 568 605 568 622.5 528.5 c 128,-1,13
 640 489 640 489 640 451 c 0,14,15
 640 436 640 436 621 411.5 c 128,-1,16
 602 387 602 387 574.5 360 c 128,-1,17
 547 333 547 333 519.5 308 c 128,-1,18
 492 283 492 283 474 268 c 2,19,-1
 394 199 l 1,20,21
 408 163 408 163 415 128.5 c 128,-1,22
 422 94 422 94 422 61 c 0,23,24
 422 33 422 33 416.5 7.5 c 128,-1,25
 411 -18 411 -18 399 -40 c 1,0,-1
364 268 m 1,26,-1
 454 347 l 2,27,28
 485 374 485 374 504 399.5 c 128,-1,29
 523 425 523 425 523 444 c 0,30,31
 523 480 523 480 506.5 517.5 c 128,-1,32
 490 555 490 555 453 580 c 128,-1,33
 416 605 416 605 355 605 c 0,34,35
 312 605 312 605 266 588.5 c 128,-1,36
 220 572 220 572 181 537 c 1,37,38
 215 500 215 500 246 458.5 c 128,-1,39
 277 417 277 417 305 373 c 0,40,41
 322 346 322 346 336.5 320 c 128,-1,42
 351 294 351 294 364 268 c 1,26,-1
EndSplineSet
EndChar

StartChar: uni0813
Encoding: 2067 2067 23
Width: 713
GlyphClass: 2
Flags: W
AnchorPoint: "+BBEENQQ3BEsEPARPBD0EPQQ+BDUA--2" 48 732 basechar 0
AnchorPoint: "+BBEENQQ3BEsEPARPBD0EPQQ+BDUA--1" 341 732 basechar 0
AnchorPoint: "+BBEENQQ3BEsEPARPBD0EPQQ+BDUA--0" 532 732 basechar 0
LayerCount: 2
Fore
SplineSet
620 -45 m 1,0,-1
 503 0 l 1,1,2
 515 33 515 33 515 76 c 0,3,4
 515 128 515 128 506 178.5 c 128,-1,5
 497 229 497 229 483 277 c 1,6,7
 437 282 437 282 386.5 284 c 128,-1,8
 336 286 336 286 303 286 c 2,9,-1
 160 286 l 2,10,11
 133 286 133 286 118 290 c 128,-1,12
 103 294 103 294 95 301 c 0,13,14
 63 329 63 329 63 350 c 0,15,16
 63 361 63 361 78.5 387.5 c 128,-1,17
 94 414 94 414 120 449 c 128,-1,18
 146 484 146 484 176.5 521 c 128,-1,19
 207 558 207 558 237.5 590.5 c 128,-1,20
 268 623 268 623 292 644 c 0,21,22
 306 656 306 656 318 663.5 c 128,-1,23
 330 671 330 671 347 671 c 0,24,25
 363 671 363 671 375 653 c 128,-1,26
 387 635 387 635 397 620 c 0,27,28
 439 552 439 552 481 472 c 128,-1,29
 523 392 523 392 558 310.5 c 128,-1,30
 593 229 593 229 614 156.5 c 128,-1,31
 635 84 635 84 635 30 c 0,32,33
 635 -15 635 -15 620 -45 c 1,0,-1
454 360 m 1,34,35
 431 419 431 419 405.5 467 c 128,-1,36
 380 515 380 515 359.5 547 c 128,-1,37
 339 579 339 579 329 589 c 1,38,39
 323 586 323 586 306.5 566.5 c 128,-1,40
 290 547 290 547 269.5 518.5 c 128,-1,41
 249 490 249 490 229 460 c 128,-1,42
 209 430 209 430 196 406 c 128,-1,43
 183 382 183 382 183 371 c 0,44,45
 183 364 183 364 194 364 c 2,46,-1
 292 364 l 2,47,48
 305 364 305 364 333 363.5 c 128,-1,49
 361 363 361 363 394 362 c 128,-1,50
 427 361 427 361 454 360 c 1,34,35
EndSplineSet
EndChar

StartChar: uni0814
Encoding: 2068 2068 24
Width: 841
GlyphClass: 2
Flags: W
AnchorPoint: "+BBEENQQ3BEsEPARPBD0EPQQ+BDUA--2" 48 751 basechar 0
AnchorPoint: "+BBEENQQ3BEsEPARPBD0EPQQ+BDUA--1" 429 751 basechar 0
AnchorPoint: "+BBEENQQ3BEsEPARPBD0EPQQ+BDUA--0" 708 751 basechar 0
LayerCount: 2
Fore
SplineSet
250 369 m 0,0,1
 161 369 161 369 112 419.5 c 128,-1,2
 63 470 63 470 63 559 c 0,3,4
 63 586 63 586 67.5 621.5 c 128,-1,5
 72 657 72 657 82 691 c 1,6,-1
 192 660 l 1,7,8
 185 633 185 633 180.5 605 c 128,-1,9
 176 577 176 577 176 557 c 0,10,11
 176 531 176 531 182 505 c 128,-1,12
 188 479 188 479 205.5 462.5 c 128,-1,13
 223 446 223 446 257 446 c 0,14,15
 290 446 290 446 312.5 469 c 128,-1,16
 335 492 335 492 351 529.5 c 128,-1,17
 367 567 367 567 378 611 c 0,18,19
 380 631 380 631 384 651.5 c 128,-1,20
 388 672 388 672 394 691 c 1,21,-1
 508 660 l 1,22,23
 501 633 501 633 497 605 c 128,-1,24
 493 577 493 577 493 557 c 0,25,26
 493 531 493 531 499 505 c 128,-1,27
 505 479 505 479 522.5 462.5 c 128,-1,28
 540 446 540 446 574 446 c 0,29,30
 625 446 625 446 660 503 c 128,-1,31
 695 560 695 560 698 691 c 1,32,-1
 778 666 l 1,33,34
 776 557 776 557 748 491.5 c 128,-1,35
 720 426 720 426 672.5 397.5 c 128,-1,36
 625 369 625 369 562 369 c 0,37,38
 504 369 504 369 462 390.5 c 128,-1,39
 420 412 420 412 399 452 c 1,40,41
 374 415 374 415 337 392 c 128,-1,42
 300 369 300 369 250 369 c 0,0,1
EndSplineSet
EndChar

StartChar: uni0815
Encoding: 2069 2069 25
Width: 937
GlyphClass: 2
Flags: W
AnchorPoint: "+BBEENQQ3BEsEPARPBD0EPQQ+BDUA--2" 48 732 basechar 0
AnchorPoint: "+BBEENQQ3BEsEPARPBD0EPQQ+BDUA--1" 507 732 basechar 0
AnchorPoint: "+BBEENQQ3BEsEPARPBD0EPQQ+BDUA--0" 781 732 basechar 0
LayerCount: 2
Fore
SplineSet
109 -44 m 1,0,1
 97 -19 97 -19 92.5 16 c 128,-1,2
 88 51 88 51 88 85 c 0,3,4
 88 157 88 157 111.5 236.5 c 128,-1,5
 135 316 135 316 172.5 392.5 c 128,-1,6
 210 469 210 469 251 533 c 1,7,8
 235 541 235 541 218.5 546.5 c 128,-1,9
 202 552 202 552 184 556 c 1,10,-1
 215 671 l 1,11,12
 307 653 307 653 372.5 587.5 c 128,-1,13
 438 522 438 522 484.5 420 c 128,-1,14
 531 318 531 318 564 187 c 1,15,16
 578 207 578 207 603 239 c 128,-1,17
 628 271 628 271 660.5 307 c 128,-1,18
 693 343 693 343 728.5 375 c 128,-1,19
 764 407 764 407 798 427 c 1,20,-1
 858 322 l 1,21,22
 773 270 773 270 698 201 c 128,-1,23
 623 132 623 132 566 58 c 1,24,-1
 511 69 l 1,25,26
 475 224 475 224 427.5 329.5 c 128,-1,27
 380 435 380 435 313 493 c 1,28,29
 278 434 278 434 254.5 367 c 128,-1,30
 231 300 231 300 219.5 235 c 128,-1,31
 208 170 208 170 208 117 c 0,32,33
 208 81 208 81 212 51 c 128,-1,34
 216 21 216 21 226 0 c 1,35,-1
 109 -44 l 1,0,1
EndSplineSet
EndChar

StartChar: uni0816
Encoding: 2070 2070 26
Width: 0
GlyphClass: 4
Flags: W
AnchorPoint: "+BBEENQQ3BEsEPARPBD0EPQQ+BDUA--4" -74 798 basemark 0
AnchorPoint: "+BBEENQQ3BEsEPARPBD0EPQQ+BDUA--0" 136 800 mark 0
LayerCount: 2
Fore
SplineSet
199 791 m 0,0,1
 156 791 156 791 126 814.5 c 128,-1,2
 96 838 96 838 96 879 c 0,3,4
 96 881 96 881 96.5 883 c 128,-1,5
 97 885 97 885 97 887 c 0,6,7
 51 892 51 892 25.5 916.5 c 128,-1,8
 0 941 0 941 0 976 c 0,9,10
 0 1000 0 1000 13.5 1023 c 128,-1,11
 27 1046 27 1046 49 1063 c 1,12,-1
 93 1024 l 1,13,14
 85 1021 85 1021 72.5 1003.5 c 128,-1,15
 60 986 60 986 60 972 c 0,16,17
 60 935 60 935 101 935 c 0,18,19
 114 935 114 935 124 941.5 c 128,-1,20
 134 948 134 948 151 964 c 1,21,-1
 188 927 l 1,22,-1
 169 913 l 2,23,24
 163 909 163 909 160.5 899 c 128,-1,25
 158 889 158 889 158 881 c 0,26,27
 158 865 158 865 171 856 c 128,-1,28
 184 847 184 847 199 847 c 0,29,30
 219 847 219 847 233 858.5 c 128,-1,31
 247 870 247 870 261 884 c 1,32,-1
 297 847 l 1,33,34
 275 821 275 821 251.5 806 c 128,-1,35
 228 791 228 791 199 791 c 0,0,1
EndSplineSet
EndChar

StartChar: uni0817
Encoding: 2071 2071 27
Width: 0
GlyphClass: 4
Flags: W
AnchorPoint: "+BBEENQQ3BEsEPARPBD0EPQQ+BDUA--4" -74 798 basemark 0
AnchorPoint: "+BBEENQQ3BEsEPARPBD0EPQQ+BDUA--0" 97 800 mark 0
LayerCount: 2
Fore
SplineSet
112 791 m 0,0,1
 57 791 57 791 28.5 827 c 128,-1,2
 0 863 0 863 0 929 c 0,3,4
 0 964 0 964 3.5 1000 c 128,-1,5
 7 1036 7 1036 14 1064 c 1,6,-1
 77 1054 l 1,7,8
 67 1008 67 1008 62.5 975.5 c 128,-1,9
 58 943 58 943 58 913 c 0,10,11
 58 870 58 870 71.5 851.5 c 128,-1,12
 85 833 85 833 111 833 c 2,13,-1
 113 833 l 1,14,15
 106 845 106 845 102.5 854.5 c 128,-1,16
 99 864 99 864 99 877 c 0,17,18
 99 936 99 936 172 962 c 1,19,-1
 188 915 l 1,20,21
 173 911 173 911 165.5 900 c 128,-1,22
 158 889 158 889 158 879 c 0,23,24
 158 867 158 867 166 857.5 c 128,-1,25
 174 848 174 848 194 848 c 0,26,27
 201 848 201 848 205 849 c 1,28,-1
 215 815 l 1,29,30
 190 804 190 804 164 797.5 c 128,-1,31
 138 791 138 791 112 791 c 0,0,1
EndSplineSet
EndChar

StartChar: uni0818
Encoding: 2072 2072 28
Width: 0
GlyphClass: 4
Flags: W
AnchorPoint: "+BBEENQQ3BEsEPARPBD0EPQQ+BDUA--5" -40 0 basemark 0
AnchorPoint: "+BBEENQQ3BEsEPARPBD0EPQQ+BDUA--4" 634 798 mark 0
AnchorPoint: "+BBEENQQ3BEsEPARPBD0EPQQ+BDUA--3" 317 893 basemark 0
AnchorPoint: "+BBEENQQ3BEsEPARPBD0EPQQ+BDUA--1" 327 800 mark 0
LayerCount: 2
Fore
SplineSet
0 791 m 1,0,-1
 11 854 l 1,1,-1
 653 854 l 1,2,-1
 642 791 l 1,3,-1
 0 791 l 1,0,-1
EndSplineSet
Substitution2: "Single Substitution lookup 0 subtable" uni0818.alt
EndChar

StartChar: uni0819
Encoding: 2073 2073 29
Width: 0
GlyphClass: 4
Flags: W
AnchorPoint: "+BBEENQQ3BEsEPARPBD0EPQQ+BDUA--5" -40 0 basemark 0
AnchorPoint: "+BBEENQQ3BEsEPARPBD0EPQQ+BDUA--4" 219 798 mark 0
AnchorPoint: "+BBEENQQ3BEsEPARPBD0EPQQ+BDUA--3" 107 800 mark 0
AnchorPoint: "+BBEENQQ3BEsEPARPBD0EPQQ+BDUA--1" 87 820 mark 0
LayerCount: 2
Fore
SplineSet
4 784 m 1,0,-1
 9 848 l 1,1,2
 31 860 31 860 49 869 c 128,-1,3
 67 878 67 878 90.5 886.5 c 128,-1,4
 114 895 114 895 151 904 c 1,5,6
 120 915 120 915 81 932 c 128,-1,7
 42 949 42 949 8 970 c 1,8,-1
 36 1017 l 1,9,10
 52 1005 52 1005 77.5 990.5 c 128,-1,11
 103 976 103 976 131 962 c 128,-1,12
 159 948 159 948 184 938 c 128,-1,13
 209 928 209 928 224 923 c 1,14,-1
 212 869 l 1,15,16
 179 859 179 859 139 843.5 c 128,-1,17
 99 828 99 828 63 812 c 128,-1,18
 27 796 27 796 4 784 c 1,0,-1
EndSplineSet
EndChar

StartChar: uni081A
Encoding: 2074 2074 30
Width: 405
GlyphClass: 2
Flags: W
AnchorPoint: "+BBEENQQ3BEsEPARPBD0EPQQ+BDUA--2" -171 732 basechar 0
LayerCount: 2
Fore
SplineSet
83 742 m 1,0,-1
 15 771 l 1,1,2
 35 859 35 859 120 859 c 0,3,4
 146 859 146 859 170 846.5 c 128,-1,5
 194 834 194 834 219 821.5 c 128,-1,6
 244 809 244 809 270 809 c 0,7,8
 290 809 290 809 301 821.5 c 128,-1,9
 312 834 312 834 319 860 c 1,10,-1
 389 831 l 1,11,12
 377 787 377 787 347.5 764.5 c 128,-1,13
 318 742 318 742 280 742 c 0,14,15
 254 742 254 742 231.5 754.5 c 128,-1,16
 209 767 209 767 185.5 780 c 128,-1,17
 162 793 162 793 132 793 c 0,18,19
 110 793 110 793 99.5 780.5 c 128,-1,20
 89 768 89 768 83 742 c 1,0,-1
EndSplineSet
Position2: "Single Positioning lookup 2 subtable" dx=293 dy=0 dh=293 dv=0
EndChar

StartChar: uni081B
Encoding: 2075 2075 31
Width: 0
GlyphClass: 4
Flags: W
AnchorPoint: "+BBEENQQ3BEsEPARPBD0EPQQ+BDUA--5" -40 0 basemark 0
AnchorPoint: "+BBEENQQ3BEsEPARPBD0EPQQ+BDUA--4" 366 798 mark 0
AnchorPoint: "+BBEENQQ3BEsEPARPBD0EPQQ+BDUA--1" 175 800 mark 0
LayerCount: 2
Fore
SplineSet
68 791 m 1,0,-1
 0 820 l 1,1,2
 10 862 10 862 36.5 885 c 128,-1,3
 63 908 63 908 105 908 c 0,4,5
 132 908 132 908 156.5 895 c 128,-1,6
 181 882 181 882 205.5 869.5 c 128,-1,7
 230 857 230 857 255 857 c 0,8,9
 276 857 276 857 286.5 870 c 128,-1,10
 297 883 297 883 304 909 c 1,11,-1
 374 880 l 1,12,13
 362 836 362 836 332.5 813.5 c 128,-1,14
 303 791 303 791 265 791 c 0,15,16
 240 791 240 791 216 803.5 c 128,-1,17
 192 816 192 816 168 829 c 128,-1,18
 144 842 144 842 117 842 c 0,19,20
 95 842 95 842 85 829.5 c 128,-1,21
 75 817 75 817 68 791 c 1,0,-1
EndSplineSet
EndChar

StartChar: uni081C
Encoding: 2076 2076 32
Width: 0
GlyphClass: 4
Flags: W
AnchorPoint: "+BBEENQQ3BEsEPARPBD0EPQQ+BDUA--6" -303 798 basemark 0
AnchorPoint: "+BBEENQQ3BEsEPARPBD0EPQQ+BDUA--6" 19 798 mark 0
AnchorPoint: "+BBEENQQ3BEsEPARPBD0EPQQ+BDUA--5" -30 0 mark 0
AnchorPoint: "+BBEENQQ3BEsEPARPBD0EPQQ+BDUA--2" -154 800 mark 0
LayerCount: 2
Fore
SplineSet
-135 781 m 1,0,-1
 -194 796 l 1,1,2
 -216 857 -216 857 -245 913 c 128,-1,3
 -274 969 -274 969 -308 1012 c 1,4,-1
 -227 1046 l 1,5,6
 -201 1002 -201 1002 -184.5 963.5 c 128,-1,7
 -168 925 -168 925 -152 873 c 1,8,9
 -132 918 -132 918 -107 957.5 c 128,-1,10
 -82 997 -82 997 -53 1032 c 1,11,-1
 -1 994 l 1,12,13
 -45 945 -45 945 -79.5 889.5 c 128,-1,14
 -114 834 -114 834 -135 781 c 1,0,-1
EndSplineSet
Position2: "Single Positioning lookup 0 subtable" dx=293 dy=0 dh=293 dv=0
EndChar

StartChar: uni081D
Encoding: 2077 2077 33
Width: 0
GlyphClass: 4
Flags: W
AnchorPoint: "+BBEENQQ3BEsEPARPBD0EPQQ+BDUA--6" -303 798 basemark 0
AnchorPoint: "+BBEENQQ3BEsEPARPBD0EPQQ+BDUA--6" -15 798 mark 0
AnchorPoint: "+BBEENQQ3BEsEPARPBD0EPQQ+BDUA--5" -49 0 mark 0
AnchorPoint: "+BBEENQQ3BEsEPARPBD0EPQQ+BDUA--2" -130 800 mark 0
LayerCount: 2
Fore
SplineSet
-131 784 m 1,0,-1
 -179 796 l 1,1,2
 -196 845 -196 845 -219.5 889.5 c 128,-1,3
 -243 934 -243 934 -270 968 c 1,4,-1
 -205 995 l 1,5,6
 -189 967 -189 967 -178.5 946.5 c 128,-1,7
 -168 926 -168 926 -160.5 905.5 c 128,-1,8
 -153 885 -153 885 -145 856 c 1,9,10
 -128 897 -128 897 -106 930.5 c 128,-1,11
 -84 964 -84 964 -66 984 c 1,12,-1
 -24 954 l 1,13,14
 -56 917 -56 917 -84.5 874 c 128,-1,15
 -113 831 -113 831 -131 784 c 1,0,-1
EndSplineSet
Position2: "Single Positioning lookup 0 subtable" dx=293 dy=0 dh=293 dv=0
EndChar

StartChar: uni081E
Encoding: 2078 2078 34
Width: 0
GlyphClass: 4
Flags: W
AnchorPoint: "+BBEENQQ3BEsEPARPBD0EPQQ+BDUA--6" -147 798 basemark 0
AnchorPoint: "+BBEENQQ3BEsEPARPBD0EPQQ+BDUA--6" 0 798 mark 0
AnchorPoint: "+BBEENQQ3BEsEPARPBD0EPQQ+BDUA--5" 0 0 mark 0
AnchorPoint: "+BBEENQQ3BEsEPARPBD0EPQQ+BDUA--2" -59 800 mark 0
LayerCount: 2
Fore
SplineSet
-95 787 m 1,0,1
 -94 795 -94 795 -93.5 804 c 128,-1,2
 -93 813 -93 813 -93 823 c 0,3,4
 -93 853 -93 853 -96.5 895 c 128,-1,5
 -100 937 -100 937 -105.5 977 c 128,-1,6
 -111 1017 -111 1017 -119 1041 c 1,7,-1
 -18 1058 l 1,8,9
 -15 1030 -15 1030 -15 997 c 0,10,11
 -15 951 -15 951 -20.5 897.5 c 128,-1,12
 -26 844 -26 844 -37 791 c 1,13,-1
 -95 787 l 1,0,1
EndSplineSet
Position2: "Single Positioning lookup 0 subtable" dx=293 dy=0 dh=293 dv=0
EndChar

StartChar: uni081F
Encoding: 2079 2079 35
Width: 0
GlyphClass: 4
Flags: W
AnchorPoint: "+BBEENQQ3BEsEPARPBD0EPQQ+BDUA--6" -137 798 basemark 0
AnchorPoint: "+BBEENQQ3BEsEPARPBD0EPQQ+BDUA--6" 0 798 mark 0
AnchorPoint: "+BBEENQQ3BEsEPARPBD0EPQQ+BDUA--5" 0 0 mark 0
AnchorPoint: "+BBEENQQ3BEsEPARPBD0EPQQ+BDUA--2" -49 800 mark 0
LayerCount: 2
Fore
SplineSet
-83 787 m 1,0,1
 -83 794 -83 794 -82.5 802 c 128,-1,2
 -82 810 -82 810 -82 818 c 0,3,4
 -82 845 -82 845 -84.5 881.5 c 128,-1,5
 -87 918 -87 918 -92 952.5 c 128,-1,6
 -97 987 -97 987 -104 1008 c 1,7,-1
 -18 1023 l 1,8,9
 -16 1010 -16 1010 -15.5 997 c 128,-1,10
 -15 984 -15 984 -15 970 c 0,11,12
 -15 883 -15 883 -33 791 c 1,13,-1
 -83 787 l 1,0,1
EndSplineSet
Position2: "Single Positioning lookup 0 subtable" dx=293 dy=0 dh=293 dv=0
EndChar

StartChar: uni0820
Encoding: 2080 2080 36
Width: 0
GlyphClass: 4
Flags: W
AnchorPoint: "+BBEENQQ3BEsEPARPBD0EPQQ+BDUA--6" -127 798 basemark 0
AnchorPoint: "+BBEENQQ3BEsEPARPBD0EPQQ+BDUA--6" 0 798 mark 0
AnchorPoint: "+BBEENQQ3BEsEPARPBD0EPQQ+BDUA--5" 0 0 mark 0
AnchorPoint: "+BBEENQQ3BEsEPARPBD0EPQQ+BDUA--2" -49 800 mark 0
LayerCount: 2
Fore
SplineSet
-74 788 m 1,0,1
 -73 794 -73 794 -73 801 c 128,-1,2
 -73 808 -73 808 -73 815 c 0,3,4
 -73 838 -73 838 -76 870 c 128,-1,5
 -79 902 -79 902 -83 932 c 128,-1,6
 -87 962 -87 962 -92 978 c 1,7,-1
 -17 991 l 1,8,9
 -15 980 -15 980 -15 968.5 c 128,-1,10
 -15 957 -15 957 -15 945 c 0,11,12
 -15 914 -15 914 -19 873 c 128,-1,13
 -23 832 -23 832 -31 791 c 1,14,-1
 -74 788 l 1,0,1
EndSplineSet
Position2: "Single Positioning lookup 0 subtable" dx=293 dy=0 dh=293 dv=0
EndChar

StartChar: uni0821
Encoding: 2081 2081 37
Width: 0
GlyphClass: 4
Flags: W
AnchorPoint: "+BBEENQQ3BEsEPARPBD0EPQQ+BDUA--6" -440 798 basemark 0
AnchorPoint: "+BBEENQQ3BEsEPARPBD0EPQQ+BDUA--6" 0 798 mark 0
AnchorPoint: "+BBEENQQ3BEsEPARPBD0EPQQ+BDUA--5" 0 0 mark 0
AnchorPoint: "+BBEENQQ3BEsEPARPBD0EPQQ+BDUA--2" -206 800 mark 0
LayerCount: 2
Fore
SplineSet
-414 791 m 1,0,-1
 -403 854 l 1,1,-1
 0 854 l 1,2,-1
 -11 791 l 1,3,-1
 -414 791 l 1,0,-1
EndSplineSet
Position2: "Single Positioning lookup 0 subtable" dx=293 dy=0 dh=293 dv=0
EndChar

StartChar: uni0822
Encoding: 2082 2082 38
Width: 0
GlyphClass: 4
Flags: W
AnchorPoint: "+BBEENQQ3BEsEPARPBD0EPQQ+BDUA--6" -391 798 basemark 0
AnchorPoint: "+BBEENQQ3BEsEPARPBD0EPQQ+BDUA--6" 0 798 mark 0
AnchorPoint: "+BBEENQQ3BEsEPARPBD0EPQQ+BDUA--5" 0 0 mark 0
AnchorPoint: "+BBEENQQ3BEsEPARPBD0EPQQ+BDUA--2" -162 800 mark 0
LayerCount: 2
Fore
SplineSet
-338 791 m 1,0,-1
 -329 848 l 1,1,-1
 0 848 l 1,2,-1
 -9 791 l 1,3,-1
 -338 791 l 1,0,-1
EndSplineSet
Position2: "Single Positioning lookup 0 subtable" dx=293 dy=0 dh=293 dv=0
EndChar

StartChar: uni0823
Encoding: 2083 2083 39
Width: 0
GlyphClass: 4
Flags: W
AnchorPoint: "+BBEENQQ3BEsEPARPBD0EPQQ+BDUA--6" -333 798 basemark 0
AnchorPoint: "+BBEENQQ3BEsEPARPBD0EPQQ+BDUA--6" 0 798 mark 0
AnchorPoint: "+BBEENQQ3BEsEPARPBD0EPQQ+BDUA--5" 0 0 mark 0
AnchorPoint: "+BBEENQQ3BEsEPARPBD0EPQQ+BDUA--2" -147 800 mark 0
LayerCount: 2
Fore
SplineSet
-286 791 m 1,0,-1
 -278 840 l 1,1,-1
 -15 840 l 1,2,-1
 -23 791 l 1,3,-1
 -286 791 l 1,0,-1
EndSplineSet
Position2: "Single Positioning lookup 0 subtable" dx=293 dy=0 dh=293 dv=0
EndChar

StartChar: uni0824
Encoding: 2084 2084 40
Width: 229
GlyphClass: 2
Flags: W
AnchorPoint: "+BBEENQQ3BEsEPARPBD0EPQQ+BDUA--2" -147 732 basechar 0
LayerCount: 2
Fore
SplineSet
44 743 m 1,0,-1
 12 756 l 1,1,2
 33 791 33 791 54 836 c 128,-1,3
 75 881 75 881 91.5 926.5 c 128,-1,4
 108 972 108 972 115 1007 c 1,5,-1
 210 1021 l 1,6,7
 199 977 199 977 172.5 925 c 128,-1,8
 146 873 146 873 112 825 c 128,-1,9
 78 777 78 777 44 743 c 1,0,-1
EndSplineSet
Position2: "Single Positioning lookup 2 subtable" dx=293 dy=0 dh=293 dv=0
EndChar

StartChar: uni0825
Encoding: 2085 2085 41
Width: 0
GlyphClass: 4
Flags: W
AnchorPoint: "+BBEENQQ3BEsEPARPBD0EPQQ+BDUA--6" -245 798 basemark 0
AnchorPoint: "+BBEENQQ3BEsEPARPBD0EPQQ+BDUA--6" 9 798 mark 0
AnchorPoint: "+BBEENQQ3BEsEPARPBD0EPQQ+BDUA--5" -49 0 mark 0
AnchorPoint: "+BBEENQQ3BEsEPARPBD0EPQQ+BDUA--2" -147 800 mark 0
LayerCount: 2
Fore
SplineSet
-167 783 m 1,0,-1
 -199 796 l 1,1,2
 -178 829 -178 829 -157.5 873 c 128,-1,3
 -137 917 -137 917 -120.5 963 c 128,-1,4
 -104 1009 -104 1009 -95 1047 c 1,5,-1
 0 1061 l 1,6,7
 -12 1016 -12 1016 -38.5 964 c 128,-1,8
 -65 912 -65 912 -98.5 864.5 c 128,-1,9
 -132 817 -132 817 -167 783 c 1,0,-1
EndSplineSet
Position2: "Single Positioning lookup 0 subtable" dx=293 dy=0 dh=293 dv=0
EndChar

StartChar: uni0826
Encoding: 2086 2086 42
Width: 0
GlyphClass: 4
Flags: W
AnchorPoint: "+BBEENQQ3BEsEPARPBD0EPQQ+BDUA--6" -342 798 basemark 0
AnchorPoint: "+BBEENQQ3BEsEPARPBD0EPQQ+BDUA--6" 0 798 mark 0
AnchorPoint: "+BBEENQQ3BEsEPARPBD0EPQQ+BDUA--5" 0 0 mark 0
AnchorPoint: "+BBEENQQ3BEsEPARPBD0EPQQ+BDUA--2" -154 800 mark 0
LayerCount: 2
Fore
SplineSet
-226 780 m 1,0,-1
 -307 814 l 1,1,2
 -273 857 -273 857 -244 913 c 128,-1,3
 -215 969 -215 969 -193 1030 c 1,4,-1
 -133 1045 l 1,5,6
 -113 993 -113 993 -78 937 c 128,-1,7
 -43 881 -43 881 0 833 c 1,8,-1
 -52 794 l 1,9,10
 -81 829 -81 829 -106 869 c 128,-1,11
 -131 909 -131 909 -151 954 c 1,12,13
 -165 904 -165 904 -182 865.5 c 128,-1,14
 -199 827 -199 827 -226 780 c 1,0,-1
EndSplineSet
Position2: "Single Positioning lookup 0 subtable" dx=293 dy=0 dh=293 dv=0
EndChar

StartChar: uni0827
Encoding: 2087 2087 43
Width: 0
GlyphClass: 4
Flags: W
AnchorPoint: "+BBEENQQ3BEsEPARPBD0EPQQ+BDUA--6" -313 798 basemark 0
AnchorPoint: "+BBEENQQ3BEsEPARPBD0EPQQ+BDUA--6" -25 798 mark 0
AnchorPoint: "+BBEENQQ3BEsEPARPBD0EPQQ+BDUA--5" -25 0 mark 0
AnchorPoint: "+BBEENQQ3BEsEPARPBD0EPQQ+BDUA--2" -154 800 mark 0
LayerCount: 2
Fore
SplineSet
-214 785 m 1,0,-1
 -279 812 l 1,1,2
 -253 846 -253 846 -229.5 890.5 c 128,-1,3
 -206 935 -206 935 -188 984 c 1,4,-1
 -141 996 l 1,5,6
 -124 953 -124 953 -96.5 910 c 128,-1,7
 -69 867 -69 867 -34 826 c 1,8,-1
 -76 795 l 1,9,10
 -98 821 -98 821 -120 857 c 128,-1,11
 -142 893 -142 893 -155 923 c 1,12,13
 -166 883 -166 883 -180 851.5 c 128,-1,14
 -194 820 -194 820 -214 785 c 1,0,-1
EndSplineSet
Position2: "Single Positioning lookup 0 subtable" dx=293 dy=0 dh=293 dv=0
EndChar

StartChar: uni0828
Encoding: 2088 2088 44
Width: 247
GlyphClass: 2
Flags: W
AnchorPoint: "+BBEENQQ3BEsEPARPBD0EPQQ+BDUA--2" -147 732 basechar 0
LayerCount: 2
Fore
SplineSet
201 743 m 1,0,1
 165 771 165 771 115 791.5 c 128,-1,2
 65 812 65 812 13 828 c 1,3,-1
 26 879 l 1,4,5
 163 930 163 930 207 963 c 1,6,-1
 228 923 l 1,7,8
 209 909 209 909 174.5 895 c 128,-1,9
 140 881 140 881 84 862 c 1,10,11
 115 859 115 859 152 844.5 c 128,-1,12
 189 830 189 830 234 802 c 1,13,-1
 201 743 l 1,0,1
EndSplineSet
Position2: "Single Positioning lookup 2 subtable" dx=293 dy=0 dh=293 dv=0
EndChar

StartChar: uni0829
Encoding: 2089 2089 45
Width: 0
GlyphClass: 4
Flags: W
AnchorPoint: "+BBEENQQ3BEsEPARPBD0EPQQ+BDUA--6" -303 798 basemark 0
AnchorPoint: "+BBEENQQ3BEsEPARPBD0EPQQ+BDUA--6" 0 798 mark 0
AnchorPoint: "+BBEENQQ3BEsEPARPBD0EPQQ+BDUA--5" 0 0 mark 0
AnchorPoint: "+BBEENQQ3BEsEPARPBD0EPQQ+BDUA--2" -127 800 mark 0
LayerCount: 2
Fore
SplineSet
-54 778 m 1,0,1
 -94 810 -94 810 -152 837 c 128,-1,2
 -210 864 -210 864 -281 885 c 1,3,-1
 -265 951 l 1,4,5
 -203 974 -203 974 -146 997.5 c 128,-1,6
 -89 1021 -89 1021 -46 1052 c 1,7,-1
 -18 1002 l 1,8,9
 -43 984 -43 984 -85 966.5 c 128,-1,10
 -127 949 -127 949 -198 925 c 1,11,12
 -120 920 -120 920 -13 854 c 1,13,-1
 -54 778 l 1,0,1
EndSplineSet
Position2: "Single Positioning lookup 0 subtable" dx=293 dy=0 dh=293 dv=0
EndChar

StartChar: uni082A
Encoding: 2090 2090 46
Width: 0
GlyphClass: 4
Flags: W
AnchorPoint: "+BBEENQQ3BEsEPARPBD0EPQQ+BDUA--6" -284 798 basemark 0
AnchorPoint: "+BBEENQQ3BEsEPARPBD0EPQQ+BDUA--6" 0 798 mark 0
AnchorPoint: "+BBEENQQ3BEsEPARPBD0EPQQ+BDUA--5" 0 0 mark 0
AnchorPoint: "+BBEENQQ3BEsEPARPBD0EPQQ+BDUA--2" -125 800 mark 0
LayerCount: 2
Fore
SplineSet
-53 791 m 1,0,1
 -90 820 -90 820 -140 840 c 128,-1,2
 -190 860 -190 860 -241 875 c 1,3,-1
 -228 927 l 1,4,5
 -160 952 -160 952 -114.5 973.5 c 128,-1,6
 -69 995 -69 995 -47 1011 c 1,7,-1
 -26 971 l 1,8,9
 -50 954 -50 954 -82 941.5 c 128,-1,10
 -114 929 -114 929 -170 910 c 1,11,12
 -140 907 -140 907 -103 892.5 c 128,-1,13
 -66 878 -66 878 -21 850 c 1,14,-1
 -53 791 l 1,0,1
EndSplineSet
Position2: "Single Positioning lookup 0 subtable" dx=293 dy=0 dh=293 dv=0
EndChar

StartChar: uni082B
Encoding: 2091 2091 47
Width: 0
GlyphClass: 4
Flags: W
AnchorPoint: "+BBEENQQ3BEsEPARPBD0EPQQ+BDUA--6" -347 798 basemark 0
AnchorPoint: "+BBEENQQ3BEsEPARPBD0EPQQ+BDUA--6" 0 798 mark 0
AnchorPoint: "+BBEENQQ3BEsEPARPBD0EPQQ+BDUA--5" 0 0 mark 0
AnchorPoint: "+BBEENQQ3BEsEPARPBD0EPQQ+BDUA--2" -147 800 mark 0
LayerCount: 2
Fore
SplineSet
-40 769 m 2,0,1
 -44 770 -44 770 -56.5 771.5 c 128,-1,2
 -69 773 -69 773 -99.5 775 c 128,-1,3
 -130 777 -130 777 -184.5 780.5 c 128,-1,4
 -239 784 -239 784 -327 790 c 1,5,6
 -273 867 -273 867 -237 932 c 128,-1,7
 -201 997 -201 997 -181 1052 c 1,8,-1
 -146 1062 l 1,9,10
 -132 1026 -132 1026 -107 980 c 128,-1,11
 -82 934 -82 934 -53 891 c 128,-1,12
 -24 848 -24 848 1 819 c 1,13,-1
 -40 769 l 2,0,1
-76 824 m 1,14,15
 -102 872 -102 872 -117.5 900.5 c 128,-1,16
 -133 929 -133 929 -141.5 947 c 128,-1,17
 -150 965 -150 965 -156 979 c 1,18,19
 -163 957 -163 957 -175.5 929.5 c 128,-1,20
 -188 902 -188 902 -201 876 c 128,-1,21
 -214 850 -214 850 -225 831 c 1,22,-1
 -76 824 l 1,14,15
EndSplineSet
Position2: "Single Positioning lookup 0 subtable" dx=293 dy=0 dh=293 dv=0
EndChar

StartChar: uni082C
Encoding: 2092 2092 48
Width: 0
GlyphClass: 4
Flags: W
AnchorPoint: "+BBEENQQ3BEsEPARPBD0EPQQ+BDUA--5" -40 0 basemark 0
AnchorPoint: "+BBEENQQ3BEsEPARPBD0EPQQ+BDUA--4" 244 798 mark 0
AnchorPoint: "+BBEENQQ3BEsEPARPBD0EPQQ+BDUA--3" 107 820 mark 0
AnchorPoint: "+BBEENQQ3BEsEPARPBD0EPQQ+BDUA--1" 107 830 mark 0
LayerCount: 2
Fore
SplineSet
105 818 m 0,0,1
 59 818 59 818 31 844.5 c 128,-1,2
 3 871 3 871 3 917 c 0,3,4
 3 970 3 970 36 1004 c 128,-1,5
 69 1038 69 1038 122 1038 c 0,6,7
 168 1038 168 1038 197 1011.5 c 128,-1,8
 226 985 226 985 226 940 c 0,9,10
 226 907 226 907 210 879 c 128,-1,11
 194 851 194 851 167 834.5 c 128,-1,12
 140 818 140 818 105 818 c 0,0,1
109 871 m 0,13,14
 134 871 134 871 151.5 887.5 c 128,-1,15
 169 904 169 904 169 932 c 0,16,17
 169 958 169 958 155 972 c 128,-1,18
 141 986 141 986 118 986 c 0,19,20
 92 986 92 986 75 969 c 128,-1,21
 58 952 58 952 58 921 c 0,22,23
 58 871 58 871 109 871 c 0,13,14
EndSplineSet
EndChar

StartChar: uni082D
Encoding: 2093 2093 49
Width: 0
GlyphClass: 4
Flags: W
AnchorPoint: "+BBEENQQ3BEsEPARPBD0EPQQ+BDUA--5" -40 0 basemark 0
AnchorPoint: "+BBEENQQ3BEsEPARPBD0EPQQ+BDUA--4" 146 798 mark 0
AnchorPoint: "+BBEENQQ3BEsEPARPBD0EPQQ+BDUA--3" 87 800 mark 0
AnchorPoint: "+BBEENQQ3BEsEPARPBD0EPQQ+BDUA--1" 87 800 mark 0
LayerCount: 2
Fore
SplineSet
99 791 m 1,0,-1
 0 858 l 1,1,-1
 67 958 l 1,2,-1
 164 891 l 1,3,-1
 99 791 l 1,0,-1
EndSplineSet
EndChar

StartChar: uni0830
Encoding: 2096 2096 50
Width: 359
GlyphClass: 2
Flags: W
LayerCount: 2
Fore
SplineSet
197 282 m 1,0,-1
 98 349 l 1,1,-1
 165 448 l 1,2,-1
 261 382 l 1,3,-1
 197 282 l 1,0,-1
EndSplineSet
EndChar

StartChar: uni0831
Encoding: 2097 2097 51
Width: 359
GlyphClass: 2
Flags: W
LayerCount: 2
Fore
SplineSet
197 451 m 1,0,-1
 98 518 l 1,1,-1
 165 617 l 1,2,-1
 261 551 l 1,3,-1
 197 451 l 1,0,-1
197 76 m 1,4,-1
 98 143 l 1,5,-1
 165 242 l 1,6,-1
 261 176 l 1,7,-1
 197 76 l 1,4,-1
EndSplineSet
EndChar

StartChar: uni0832
Encoding: 2098 2098 52
Width: 591
GlyphClass: 2
Flags: W
LayerCount: 2
Fore
SplineSet
429 519 m 1,0,-1
 330 586 l 1,1,-1
 397 686 l 1,2,-1
 494 619 l 1,3,-1
 429 519 l 1,0,-1
197 519 m 1,4,-1
 98 586 l 1,5,-1
 165 686 l 1,6,-1
 261 619 l 1,7,-1
 197 519 l 1,4,-1
EndSplineSet
EndChar

StartChar: uni0833
Encoding: 2099 2099 53
Width: 875
GlyphClass: 2
Flags: W
LayerCount: 2
Fore
SplineSet
312 59 m 1,0,-1
 240 162 l 1,1,2
 275 182 275 182 292.5 206 c 128,-1,3
 310 230 310 230 310 270 c 0,4,5
 310 300 310 300 294 331 c 128,-1,6
 278 362 278 362 252.5 392.5 c 128,-1,7
 227 423 227 423 200 450 c 128,-1,8
 173 477 173 477 149.5 499 c 128,-1,9
 126 521 126 521 115 535 c 1,10,-1
 98 599 l 1,11,12
 121 610 121 610 149.5 616 c 128,-1,13
 178 622 178 622 214 622 c 0,14,15
 262 622 262 622 296.5 619.5 c 128,-1,16
 331 617 331 617 360.5 614.5 c 128,-1,17
 390 612 390 612 422.5 609.5 c 128,-1,18
 455 607 455 607 498 607 c 0,19,20
 514 607 514 607 537.5 608.5 c 128,-1,21
 561 610 561 610 573 613 c 1,22,-1
 554 503 l 1,23,24
 544 502 544 502 525 501 c 128,-1,25
 506 500 506 500 497 500 c 0,26,27
 441 500 441 500 395 511.5 c 128,-1,28
 349 523 349 523 309 534.5 c 128,-1,29
 269 546 269 546 229 546 c 0,30,31
 215 546 215 546 203 545 c 128,-1,32
 191 544 191 544 181 539 c 1,33,34
 218 500 218 500 256.5 462 c 128,-1,35
 295 424 295 424 328 387 c 128,-1,36
 361 350 361 350 381 312 c 128,-1,37
 401 274 401 274 401 235 c 0,38,39
 401 207 401 207 396 177.5 c 128,-1,40
 391 148 391 148 372.5 118 c 128,-1,41
 354 88 354 88 312 59 c 1,0,-1
713 451 m 1,42,-1
 613 518 l 1,43,-1
 681 617 l 1,44,-1
 777 551 l 1,45,-1
 713 451 l 1,42,-1
EndSplineSet
EndChar

StartChar: uni0834
Encoding: 2100 2100 54
Width: 875
GlyphClass: 2
Flags: W
LayerCount: 2
Fore
SplineSet
312 59 m 1,0,-1
 240 162 l 1,1,2
 275 182 275 182 292.5 206 c 128,-1,3
 310 230 310 230 310 270 c 0,4,5
 310 300 310 300 294 331 c 128,-1,6
 278 362 278 362 252.5 392.5 c 128,-1,7
 227 423 227 423 200 450 c 128,-1,8
 173 477 173 477 149.5 499 c 128,-1,9
 126 521 126 521 115 535 c 1,10,-1
 98 599 l 1,11,12
 121 610 121 610 149.5 616 c 128,-1,13
 178 622 178 622 214 622 c 0,14,15
 262 622 262 622 296.5 619.5 c 128,-1,16
 331 617 331 617 360.5 614.5 c 128,-1,17
 390 612 390 612 422.5 609.5 c 128,-1,18
 455 607 455 607 498 607 c 0,19,20
 514 607 514 607 537.5 608.5 c 128,-1,21
 561 610 561 610 573 613 c 1,22,-1
 554 503 l 1,23,24
 544 502 544 502 525 501 c 128,-1,25
 506 500 506 500 497 500 c 0,26,27
 441 500 441 500 395 511.5 c 128,-1,28
 349 523 349 523 309 534.5 c 128,-1,29
 269 546 269 546 229 546 c 0,30,31
 215 546 215 546 203 545 c 128,-1,32
 191 544 191 544 181 539 c 1,33,34
 218 500 218 500 256.5 462 c 128,-1,35
 295 424 295 424 328 387 c 128,-1,36
 361 350 361 350 381 312 c 128,-1,37
 401 274 401 274 401 235 c 0,38,39
 401 207 401 207 396 177.5 c 128,-1,40
 391 148 391 148 372.5 118 c 128,-1,41
 354 88 354 88 312 59 c 1,0,-1
713 451 m 1,42,-1
 613 518 l 1,43,-1
 681 617 l 1,44,-1
 777 551 l 1,45,-1
 713 451 l 1,42,-1
713 76 m 1,46,-1
 613 143 l 1,47,-1
 681 242 l 1,48,-1
 777 176 l 1,49,-1
 713 76 l 1,46,-1
EndSplineSet
EndChar

StartChar: uni0835
Encoding: 2101 2101 55
Width: 579
GlyphClass: 2
Flags: W
LayerCount: 2
Fore
SplineSet
214 467 m 1,0,-1
 135 521 l 1,1,-1
 188 601 l 1,2,-1
 266 547 l 1,3,-1
 214 467 l 1,0,-1
375 467 m 1,4,-1
 296 521 l 1,5,-1
 350 601 l 1,6,-1
 427 547 l 1,7,-1
 375 467 l 1,4,-1
481 34 m 1,8,9
 465 36 465 36 430.5 44 c 128,-1,10
 396 52 396 52 353 65.5 c 128,-1,11
 310 79 310 79 265.5 97 c 128,-1,12
 221 115 221 115 183 137.5 c 128,-1,13
 145 160 145 160 121.5 185.5 c 128,-1,14
 98 211 98 211 98 239 c 0,15,16
 98 243 98 243 98.5 246 c 128,-1,17
 99 249 99 249 100 253 c 2,18,-1
 105 275 l 2,19,20
 115 315 115 315 161 342.5 c 128,-1,21
 207 370 207 370 280 386 c 128,-1,22
 353 402 353 402 443 406 c 1,23,-1
 451 341 l 1,24,25
 352 335 352 335 297.5 322 c 128,-1,26
 243 309 243 309 222 293 c 128,-1,27
 201 277 201 277 201 262 c 0,28,29
 201 244 201 244 237 221 c 128,-1,30
 273 198 273 198 335 176 c 128,-1,31
 397 154 397 154 474 137 c 1,32,-1
 481 34 l 1,8,9
EndSplineSet
EndChar

StartChar: uni0836
Encoding: 2102 2102 56
Width: 670
GlyphClass: 2
Flags: W
LayerCount: 2
Fore
SplineSet
294 519 m 1,0,-1
 195 586 l 1,1,-1
 263 686 l 1,2,-1
 359 619 l 1,3,-1
 294 519 l 1,0,-1
214 -9 m 0,4,5
 144 -9 144 -9 98 14 c 1,6,-1
 115 77 l 1,7,8
 129 95 129 95 154 117.5 c 128,-1,9
 179 140 179 140 205 167 c 128,-1,10
 231 194 231 194 249 224.5 c 128,-1,11
 267 255 267 255 267 288 c 0,12,13
 267 324 267 324 252.5 342 c 128,-1,14
 238 360 238 360 210 376 c 1,15,-1
 282 477 l 1,16,17
 319 449 319 449 334.5 423 c 128,-1,18
 350 397 350 397 354 374 c 128,-1,19
 358 351 358 351 358 331 c 0,20,21
 358 279 358 279 334 240.5 c 128,-1,22
 310 202 310 202 270 164 c 128,-1,23
 230 126 230 126 181 74 c 1,24,25
 191 69 191 69 203 67.5 c 128,-1,26
 215 66 215 66 229 66 c 0,27,28
 269 66 269 66 309 78 c 128,-1,29
 349 90 349 90 395 101.5 c 128,-1,30
 441 113 441 113 497 113 c 0,31,32
 506 113 506 113 525 112 c 128,-1,33
 544 111 544 111 554 109 c 1,34,-1
 573 -1 l 1,35,36
 561 2 561 2 537.5 3.5 c 128,-1,37
 514 5 514 5 498 5 c 0,38,39
 455 5 455 5 422.5 3 c 128,-1,40
 390 1 390 1 360.5 -2 c 128,-1,41
 331 -5 331 -5 296.5 -7 c 128,-1,42
 262 -9 262 -9 214 -9 c 0,4,5
EndSplineSet
EndChar

StartChar: uni0837
Encoding: 2103 2103 57
Width: 1309
GlyphClass: 2
Flags: W
LayerCount: 2
Fore
SplineSet
950 59 m 1,0,-1
 879 162 l 1,1,2
 914 182 914 182 931.5 206 c 128,-1,3
 949 230 949 230 949 270 c 0,4,5
 949 300 949 300 933 331 c 128,-1,6
 917 362 917 362 891.5 392.5 c 128,-1,7
 866 423 866 423 838.5 450 c 128,-1,8
 811 477 811 477 788 499 c 128,-1,9
 765 521 765 521 753 535 c 1,10,-1
 736 599 l 1,11,12
 759 610 759 610 788 616 c 128,-1,13
 817 622 817 622 853 622 c 0,14,15
 901 622 901 622 935.5 619.5 c 128,-1,16
 970 617 970 617 999.5 614.5 c 128,-1,17
 1029 612 1029 612 1061 609.5 c 128,-1,18
 1093 607 1093 607 1136 607 c 0,19,20
 1153 607 1153 607 1176.5 608.5 c 128,-1,21
 1200 610 1200 610 1211 613 c 1,22,-1
 1192 503 l 1,23,24
 1183 502 1183 502 1164 501 c 128,-1,25
 1145 500 1145 500 1135 500 c 0,26,27
 1079 500 1079 500 1033.5 511.5 c 128,-1,28
 988 523 988 523 947.5 534.5 c 128,-1,29
 907 546 907 546 867 546 c 0,30,31
 854 546 854 546 842 545 c 128,-1,32
 830 544 830 544 819 539 c 1,33,34
 856 500 856 500 895 462 c 128,-1,35
 934 424 934 424 967 387 c 128,-1,36
 1000 350 1000 350 1020 312 c 128,-1,37
 1040 274 1040 274 1040 235 c 0,38,39
 1040 207 1040 207 1035 177.5 c 128,-1,40
 1030 148 1030 148 1011 118 c 128,-1,41
 992 88 992 88 950 59 c 1,0,-1
98 320 m 1,42,-1
 112 407 l 1,43,-1
 762 407 l 1,44,-1
 748 320 l 1,45,-1
 98 320 l 1,42,-1
EndSplineSet
EndChar

StartChar: uni0838
Encoding: 2104 2104 58
Width: 1075
GlyphClass: 2
Flags: W
LayerCount: 2
Fore
SplineSet
913 282 m 1,0,-1
 813 349 l 1,1,-1
 881 448 l 1,2,-1
 977 382 l 1,3,-1
 913 282 l 1,0,-1
98 320 m 1,4,-1
 112 407 l 1,5,-1
 762 407 l 1,6,-1
 748 320 l 1,7,-1
 98 320 l 1,4,-1
EndSplineSet
EndChar

StartChar: uni0839
Encoding: 2105 2105 59
Width: 1064
GlyphClass: 2
Flags: W
LayerCount: 2
Fore
SplineSet
902 451 m 1,0,-1
 803 518 l 1,1,-1
 870 617 l 1,2,-1
 966 551 l 1,3,-1
 902 451 l 1,0,-1
98 320 m 1,4,-1
 112 407 l 1,5,-1
 762 407 l 1,6,-1
 748 320 l 1,7,-1
 98 320 l 1,4,-1
902 76 m 1,8,-1
 803 143 l 1,9,-1
 870 242 l 1,10,-1
 966 176 l 1,11,-1
 902 76 l 1,8,-1
EndSplineSet
EndChar

StartChar: uni083A
Encoding: 2106 2106 60
Width: 1064
GlyphClass: 2
Flags: W
LayerCount: 2
Fore
SplineSet
902 451 m 1,0,-1
 803 518 l 1,1,-1
 870 617 l 1,2,-1
 966 551 l 1,3,-1
 902 451 l 1,0,-1
98 418 m 1,4,-1
 112 505 l 1,5,-1
 762 505 l 1,6,-1
 748 418 l 1,7,-1
 98 418 l 1,4,-1
98 198 m 1,8,-1
 112 285 l 1,9,-1
 762 285 l 1,10,-1
 748 198 l 1,11,-1
 98 198 l 1,8,-1
902 76 m 1,12,-1
 803 143 l 1,13,-1
 870 242 l 1,14,-1
 966 176 l 1,15,-1
 902 76 l 1,12,-1
EndSplineSet
EndChar

StartChar: uni083B
Encoding: 2107 2107 61
Width: 502
GlyphClass: 2
Flags: W
LayerCount: 2
Fore
SplineSet
341 451 m 1,0,-1
 241 518 l 1,1,-1
 309 617 l 1,2,-1
 405 551 l 1,3,-1
 341 451 l 1,0,-1
98 84 m 1,4,-1
 98 609 l 1,5,-1
 182 609 l 1,6,-1
 182 84 l 1,7,-1
 98 84 l 1,4,-1
341 76 m 1,8,-1
 241 143 l 1,9,-1
 309 242 l 1,10,-1
 405 176 l 1,11,-1
 341 76 l 1,8,-1
EndSplineSet
EndChar

StartChar: uni083C
Encoding: 2108 2108 62
Width: 616
GlyphClass: 2
Flags: W
LayerCount: 2
Fore
SplineSet
165 147 m 1,0,-1
 98 200 l 1,1,-1
 452 661 l 1,2,-1
 519 608 l 1,3,-1
 165 147 l 1,0,-1
EndSplineSet
EndChar

StartChar: uni083D
Encoding: 2109 2109 63
Width: 806
GlyphClass: 2
Flags: W
LayerCount: 2
Fore
SplineSet
165 147 m 1,0,-1
 98 200 l 1,1,-1
 452 661 l 1,2,-1
 519 608 l 1,3,-1
 165 147 l 1,0,-1
536 312 m 1,4,-1
 436 379 l 1,5,-1
 504 478 l 1,6,-1
 600 412 l 1,7,-1
 536 312 l 1,4,-1
644 156 m 1,8,-1
 544 224 l 1,9,-1
 611 323 l 1,10,-1
 708 257 l 1,11,-1
 644 156 l 1,8,-1
433 149 m 1,12,-1
 333 216 l 1,13,-1
 400 316 l 1,14,-1
 497 250 l 1,15,-1
 433 149 l 1,12,-1
EndSplineSet
EndChar

StartChar: uni083E
Encoding: 2110 2110 64
Width: 425
GlyphClass: 2
Flags: W
LayerCount: 2
Fore
SplineSet
203 253 m 0,0,1
 157 253 157 253 127.5 280.5 c 128,-1,2
 98 308 98 308 98 355 c 0,3,4
 98 413 98 413 133 446.5 c 128,-1,5
 168 480 168 480 220 480 c 0,6,7
 266 480 266 480 297 453 c 128,-1,8
 328 426 328 426 328 379 c 0,9,10
 328 346 328 346 312 317.5 c 128,-1,11
 296 289 296 289 268 271 c 128,-1,12
 240 253 240 253 203 253 c 0,0,1
207 308 m 0,13,14
 233 308 233 308 251 325 c 128,-1,15
 269 342 269 342 269 370 c 0,16,17
 269 396 269 396 254.5 411.5 c 128,-1,18
 240 427 240 427 216 427 c 0,19,20
 189 427 189 427 171.5 409 c 128,-1,21
 154 391 154 391 154 359 c 0,22,23
 154 308 154 308 207 308 c 0,13,14
EndSplineSet
EndChar

StartChar: uni0818.alt
Encoding: 65537 -1 65
Width: 0
GlyphClass: 4
Flags: W
AnchorPoint: "+BBEENQQ3BEsEPARPBD0EPQQ+BDUA--5" -40 0 basemark 0
AnchorPoint: "+BBEENQQ3BEsEPARPBD0EPQQ+BDUA--4" 366 798 mark 0
AnchorPoint: "+BBEENQQ3BEsEPARPBD0EPQQ+BDUA--3" 185 893 basemark 0
AnchorPoint: "+BBEENQQ3BEsEPARPBD0EPQQ+BDUA--1" 185 800 mark 0
LayerCount: 2
Fore
SplineSet
0 791 m 1,0,-1
 11 854 l 1,1,-1
 384 854 l 1,2,-1
 374 791 l 1,3,-1
 0 791 l 1,0,-1
EndSplineSet
EndChar

StartChar: uni2E31
Encoding: 11825 11825 66
Width: 425
GlyphClass: 2
Flags: W
LayerCount: 2
Fore
SplineSet
207 292 m 0,0,1
 141 292 141 292 141 356 c 0,2,3
 141 396 141 396 163 418 c 128,-1,4
 185 440 185 440 219 440 c 0,5,6
 248 440 248 440 266 421 c 128,-1,7
 284 402 284 402 284 370 c 0,8,9
 284 334 284 334 261.5 313 c 128,-1,10
 239 292 239 292 207 292 c 0,0,1
EndSplineSet
EndChar

StartChar: uni25CC
Encoding: 9676 9676 68
Width: 693
VWidth: 2048
Flags: WO
AnchorPoint: "+BBEENQQ3BEsEPARPBD0EPQQ+BDUA--2" 56 747 basechar 0
AnchorPoint: "+BBEENQQ3BEsEPARPBD0EPQQ+BDUA--1" 348 747 basechar 0
AnchorPoint: "+BBEENQQ3BEsEPARPBD0EPQQ+BDUA--0" 636 747 basechar 0
LayerCount: 2
Fore
SplineSet
317.90234375 612.850585938 m 0,0,1
 317.90234375 625.572265625 317.90234375 625.572265625 327.380859375 635.264648438 c 128,-1,2
 336.860351562 644.95703125 336.860351562 644.95703125 349.301757812 644.95703125 c 0,3,4
 362.3359375 644.95703125 362.3359375 644.95703125 371.815429688 635.264648438 c 128,-1,5
 381.294921875 625.572265625 381.294921875 625.572265625 381.294921875 612.850585938 c 0,6,7
 381.294921875 599.5234375 381.294921875 599.5234375 371.815429688 589.830078125 c 128,-1,8
 362.3359375 580.137695312 362.3359375 580.137695312 349.301757812 580.137695312 c 0,9,10
 336.860351562 580.137695312 336.860351562 580.137695312 327.380859375 589.830078125 c 128,-1,11
 317.90234375 599.5234375 317.90234375 599.5234375 317.90234375 612.850585938 c 0,0,1
215.999023438 590.435546875 m 0,12,13
 215.999023438 603.158203125 215.999023438 603.158203125 225.478515625 612.850585938 c 128,-1,14
 234.958007812 622.54296875 234.958007812 622.54296875 247.399414062 622.54296875 c 0,15,16
 260.43359375 622.54296875 260.43359375 622.54296875 269.616210938 612.850585938 c 128,-1,17
 278.799804688 603.158203125 278.799804688 603.158203125 278.799804688 590.435546875 c 0,18,19
 278.799804688 577.108398438 278.799804688 577.108398438 269.616210938 567.719726562 c 128,-1,20
 260.43359375 558.330078125 260.43359375 558.330078125 247.399414062 558.330078125 c 0,21,22
 234.958007812 558.330078125 234.958007812 558.330078125 225.478515625 567.719726562 c 128,-1,23
 215.999023438 577.108398438 215.999023438 577.108398438 215.999023438 590.435546875 c 0,12,13
419.803710938 590.435546875 m 0,24,25
 419.803710938 603.158203125 419.803710938 603.158203125 429.283203125 612.850585938 c 128,-1,26
 438.76171875 622.54296875 438.76171875 622.54296875 451.204101562 622.54296875 c 0,27,28
 464.23828125 622.54296875 464.23828125 622.54296875 473.716796875 612.850585938 c 128,-1,29
 483.197265625 603.158203125 483.197265625 603.158203125 483.197265625 590.435546875 c 0,30,31
 483.197265625 577.108398438 483.197265625 577.108398438 473.716796875 567.719726562 c 128,-1,32
 464.23828125 558.330078125 464.23828125 558.330078125 451.204101562 558.330078125 c 0,33,34
 438.76171875 558.330078125 438.76171875 558.330078125 429.283203125 567.719726562 c 128,-1,35
 419.803710938 577.108398438 419.803710938 577.108398438 419.803710938 590.435546875 c 0,24,25
125.9453125 532.28125 m 0,36,37
 125.9453125 545.001953125 125.9453125 545.001953125 135.424804688 554.6953125 c 128,-1,38
 144.904296875 564.387695312 144.904296875 564.387695312 157.938476562 564.387695312 c 0,39,40
 170.379882812 564.387695312 170.379882812 564.387695312 179.858398438 554.6953125 c 128,-1,41
 189.338867188 545.001953125 189.338867188 545.001953125 189.338867188 532.28125 c 0,42,43
 189.338867188 518.954101562 189.338867188 518.954101562 179.858398438 509.260742188 c 128,-1,44
 170.379882812 499.568359375 170.379882812 499.568359375 157.938476562 499.568359375 c 0,45,46
 144.904296875 499.568359375 144.904296875 499.568359375 135.424804688 509.260742188 c 128,-1,47
 125.9453125 518.954101562 125.9453125 518.954101562 125.9453125 532.28125 c 0,36,37
509.857421875 532.28125 m 0,48,49
 509.857421875 545.001953125 509.857421875 545.001953125 519.041015625 554.6953125 c 128,-1,50
 528.223632812 564.387695312 528.223632812 564.387695312 541.2578125 564.387695312 c 256,51,52
 554.291992188 564.387695312 554.291992188 564.387695312 563.474609375 554.6953125 c 128,-1,53
 572.657226562 545.001953125 572.657226562 545.001953125 572.657226562 532.28125 c 0,54,55
 572.657226562 518.954101562 572.657226562 518.954101562 563.474609375 509.260742188 c 128,-1,56
 554.291992188 499.568359375 554.291992188 499.568359375 541.2578125 499.568359375 c 256,57,58
 528.223632812 499.568359375 528.223632812 499.568359375 519.041015625 509.260742188 c 128,-1,59
 509.857421875 518.954101562 509.857421875 518.954101562 509.857421875 532.28125 c 0,48,49
69.0703125 440.201171875 m 256,60,61
 69.0703125 453.52734375 69.0703125 453.52734375 78.548828125 462.91796875 c 128,-1,62
 88.0283203125 472.30859375 88.0283203125 472.30859375 100.469726562 472.30859375 c 0,63,64
 113.504882812 472.30859375 113.504882812 472.30859375 122.983398438 462.91796875 c 128,-1,65
 132.462890625 453.52734375 132.462890625 453.52734375 132.462890625 440.201171875 c 256,66,67
 132.462890625 426.874023438 132.462890625 426.874023438 122.983398438 417.483398438 c 128,-1,68
 113.504882812 408.094726562 113.504882812 408.094726562 100.469726562 408.094726562 c 0,69,70
 88.0283203125 408.094726562 88.0283203125 408.094726562 78.548828125 417.483398438 c 128,-1,71
 69.0703125 426.874023438 69.0703125 426.874023438 69.0703125 440.201171875 c 256,60,61
566.733398438 440.201171875 m 256,72,73
 566.733398438 453.52734375 566.733398438 453.52734375 575.916015625 462.91796875 c 128,-1,74
 585.098632812 472.30859375 585.098632812 472.30859375 598.133789062 472.30859375 c 256,75,76
 611.16796875 472.30859375 611.16796875 472.30859375 620.350585938 462.91796875 c 128,-1,77
 629.534179688 453.52734375 629.534179688 453.52734375 629.534179688 440.201171875 c 256,78,79
 629.534179688 426.874023438 629.534179688 426.874023438 620.350585938 417.483398438 c 128,-1,80
 611.16796875 408.094726562 611.16796875 408.094726562 598.133789062 408.094726562 c 256,81,82
 585.098632812 408.094726562 585.098632812 408.094726562 575.916015625 417.483398438 c 128,-1,83
 566.733398438 426.874023438 566.733398438 426.874023438 566.733398438 440.201171875 c 256,72,73
47.1494140625 336.005859375 m 256,84,85
 47.1494140625 349.333007812 47.1494140625 349.333007812 56.6279296875 358.72265625 c 128,-1,86
 66.1083984375 368.112304688 66.1083984375 368.112304688 79.140625 368.112304688 c 0,87,88
 91.5830078125 368.112304688 91.5830078125 368.112304688 101.063476562 358.72265625 c 128,-1,89
 110.541992188 349.333007812 110.541992188 349.333007812 110.541992188 336.005859375 c 256,90,91
 110.541992188 322.6796875 110.541992188 322.6796875 101.063476562 313.2890625 c 128,-1,92
 91.5830078125 303.8984375 91.5830078125 303.8984375 79.140625 303.8984375 c 0,93,94
 66.1083984375 303.8984375 66.1083984375 303.8984375 56.6279296875 313.2890625 c 128,-1,95
 47.1494140625 322.6796875 47.1494140625 322.6796875 47.1494140625 336.005859375 c 256,84,85
588.654296875 336.005859375 m 256,96,97
 588.654296875 349.333007812 588.654296875 349.333007812 597.837890625 358.72265625 c 128,-1,98
 607.020507812 368.112304688 607.020507812 368.112304688 620.053710938 368.112304688 c 256,99,100
 633.088867188 368.112304688 633.088867188 368.112304688 642.271484375 358.72265625 c 128,-1,101
 651.454101562 349.333007812 651.454101562 349.333007812 651.454101562 336.005859375 c 256,102,103
 651.454101562 322.6796875 651.454101562 322.6796875 642.271484375 313.2890625 c 128,-1,104
 633.088867188 303.8984375 633.088867188 303.8984375 620.053710938 303.8984375 c 256,105,106
 607.020507812 303.8984375 607.020507812 303.8984375 597.837890625 313.2890625 c 128,-1,107
 588.654296875 322.6796875 588.654296875 322.6796875 588.654296875 336.005859375 c 256,96,97
69.0703125 231.810546875 m 256,108,109
 69.0703125 245.137695312 69.0703125 245.137695312 78.548828125 254.52734375 c 128,-1,110
 88.0283203125 263.91796875 88.0283203125 263.91796875 100.469726562 263.91796875 c 0,111,112
 113.504882812 263.91796875 113.504882812 263.91796875 122.983398438 254.52734375 c 128,-1,113
 132.462890625 245.137695312 132.462890625 245.137695312 132.462890625 231.810546875 c 256,114,115
 132.462890625 218.483398438 132.462890625 218.483398438 122.983398438 209.092773438 c 128,-1,116
 113.504882812 199.704101562 113.504882812 199.704101562 100.469726562 199.704101562 c 0,117,118
 88.0283203125 199.704101562 88.0283203125 199.704101562 78.548828125 209.092773438 c 128,-1,119
 69.0703125 218.483398438 69.0703125 218.483398438 69.0703125 231.810546875 c 256,108,109
566.733398438 231.810546875 m 256,120,121
 566.733398438 245.137695312 566.733398438 245.137695312 575.916015625 254.52734375 c 128,-1,122
 585.098632812 263.91796875 585.098632812 263.91796875 598.133789062 263.91796875 c 256,123,124
 611.16796875 263.91796875 611.16796875 263.91796875 620.350585938 254.52734375 c 128,-1,125
 629.534179688 245.137695312 629.534179688 245.137695312 629.534179688 231.810546875 c 256,126,127
 629.534179688 218.483398438 629.534179688 218.483398438 620.350585938 209.092773438 c 128,-1,128
 611.16796875 199.704101562 611.16796875 199.704101562 598.133789062 199.704101562 c 256,129,130
 585.098632812 199.704101562 585.098632812 199.704101562 575.916015625 209.092773438 c 128,-1,131
 566.733398438 218.483398438 566.733398438 218.483398438 566.733398438 231.810546875 c 256,120,121
125.9453125 139.731445312 m 0,132,133
 125.9453125 153.057617188 125.9453125 153.057617188 135.424804688 162.750976562 c 128,-1,134
 144.904296875 172.443359375 144.904296875 172.443359375 157.938476562 172.443359375 c 0,135,136
 170.379882812 172.443359375 170.379882812 172.443359375 179.858398438 162.750976562 c 128,-1,137
 189.338867188 153.057617188 189.338867188 153.057617188 189.338867188 139.731445312 c 0,138,139
 189.338867188 127.009765625 189.338867188 127.009765625 179.858398438 117.31640625 c 128,-1,140
 170.379882812 107.625 170.379882812 107.625 157.938476562 107.625 c 0,141,142
 144.904296875 107.625 144.904296875 107.625 135.424804688 117.31640625 c 128,-1,143
 125.9453125 127.009765625 125.9453125 127.009765625 125.9453125 139.731445312 c 0,132,133
509.857421875 139.731445312 m 0,144,145
 509.857421875 153.057617188 509.857421875 153.057617188 519.041015625 162.750976562 c 128,-1,146
 528.223632812 172.443359375 528.223632812 172.443359375 541.2578125 172.443359375 c 256,147,148
 554.291992188 172.443359375 554.291992188 172.443359375 563.474609375 162.750976562 c 128,-1,149
 572.657226562 153.057617188 572.657226562 153.057617188 572.657226562 139.731445312 c 0,150,151
 572.657226562 127.009765625 572.657226562 127.009765625 563.474609375 117.31640625 c 128,-1,152
 554.291992188 107.625 554.291992188 107.625 541.2578125 107.625 c 256,153,154
 528.223632812 107.625 528.223632812 107.625 519.041015625 117.31640625 c 128,-1,155
 509.857421875 127.009765625 509.857421875 127.009765625 509.857421875 139.731445312 c 0,144,145
215.999023438 81.5751953125 m 256,156,157
 215.999023438 94.9033203125 215.999023438 94.9033203125 225.478515625 104.29296875 c 128,-1,158
 234.958007812 113.682617188 234.958007812 113.682617188 247.399414062 113.682617188 c 0,159,160
 260.43359375 113.682617188 260.43359375 113.682617188 269.616210938 104.29296875 c 128,-1,161
 278.799804688 94.9033203125 278.799804688 94.9033203125 278.799804688 81.5751953125 c 256,162,163
 278.799804688 68.248046875 278.799804688 68.248046875 269.616210938 58.8583984375 c 128,-1,164
 260.43359375 49.4677734375 260.43359375 49.4677734375 247.399414062 49.4677734375 c 0,165,166
 234.958007812 49.4677734375 234.958007812 49.4677734375 225.478515625 58.8583984375 c 128,-1,167
 215.999023438 68.248046875 215.999023438 68.248046875 215.999023438 81.5751953125 c 256,156,157
419.803710938 81.5751953125 m 256,168,169
 419.803710938 94.9033203125 419.803710938 94.9033203125 429.283203125 104.29296875 c 128,-1,170
 438.76171875 113.682617188 438.76171875 113.682617188 451.204101562 113.682617188 c 0,171,172
 464.23828125 113.682617188 464.23828125 113.682617188 473.716796875 104.29296875 c 128,-1,173
 483.197265625 94.9033203125 483.197265625 94.9033203125 483.197265625 81.5751953125 c 256,174,175
 483.197265625 68.248046875 483.197265625 68.248046875 473.716796875 58.8583984375 c 128,-1,176
 464.23828125 49.4677734375 464.23828125 49.4677734375 451.204101562 49.4677734375 c 0,177,178
 438.76171875 49.4677734375 438.76171875 49.4677734375 429.283203125 58.8583984375 c 128,-1,179
 419.803710938 68.248046875 419.803710938 68.248046875 419.803710938 81.5751953125 c 256,168,169
317.90234375 59.16015625 m 0,180,181
 317.90234375 72.48828125 317.90234375 72.48828125 327.380859375 82.1806640625 c 128,-1,182
 336.860351562 91.873046875 336.860351562 91.873046875 349.301757812 91.873046875 c 0,183,184
 362.3359375 91.873046875 362.3359375 91.873046875 371.815429688 82.1806640625 c 128,-1,185
 381.294921875 72.48828125 381.294921875 72.48828125 381.294921875 59.16015625 c 0,186,187
 381.294921875 46.439453125 381.294921875 46.439453125 371.815429688 36.748046875 c 128,-1,188
 362.3359375 27.0546875 362.3359375 27.0546875 349.301757812 27.0546875 c 0,189,190
 336.860351562 27.0546875 336.860351562 27.0546875 327.380859375 36.748046875 c 128,-1,191
 317.90234375 46.439453125 317.90234375 46.439453125 317.90234375 59.16015625 c 0,180,181
EndSplineSet
EndChar
